<svg width="44" height="44" viewBox="0 0 44 44" fill="none" xmlns="http://www.w3.org/2000/svg">
<rect width="44" height="44" rx="5" fill="#013934"/>
<path d="M13.2322 30.7537L19.5962 24.3897M27.6102 21.5597L25.7052 27.2747C25.6748 27.3663 25.6228 27.4492 25.5535 27.5164C25.4842 27.5836 25.3997 27.6331 25.3072 27.6607L13.6292 31.1317C13.524 31.1629 13.4122 31.1647 13.3061 31.1369C13.1999 31.109 13.1035 31.0526 13.0271 30.9737C12.9508 30.8948 12.8976 30.7965 12.8733 30.6895C12.849 30.5824 12.8545 30.4708 12.8892 30.3667L16.6812 18.9927C16.7084 18.911 16.7528 18.8362 16.8115 18.7732C16.8702 18.7102 16.9417 18.6606 17.0212 18.6277L22.4082 16.4097C22.5177 16.3645 22.6382 16.3527 22.7544 16.3758C22.8706 16.3989 22.9774 16.456 23.0612 16.5397L27.4652 20.9457C27.544 21.0245 27.5993 21.1237 27.6249 21.2321C27.6505 21.3405 27.6454 21.454 27.6102 21.5597Z" stroke="white" stroke-width="1.5" stroke-linecap="round" stroke-linejoin="round"/>
<path d="M27.7279 21.2078L30.5559 18.3788C30.9308 18.0038 31.1414 17.4952 31.1414 16.9648C31.1414 16.4345 30.9308 15.9259 30.5559 15.5508L28.4359 13.4288C28.2501 13.243 28.0296 13.0957 27.7869 12.9951C27.5442 12.8945 27.2841 12.8428 27.0214 12.8428C26.7587 12.8428 26.4985 12.8945 26.2558 12.9951C26.0131 13.0957 25.7926 13.243 25.6069 13.4288L22.7789 16.2578M21.7169 22.2678C21.5775 22.1286 21.4121 22.0181 21.2301 21.9428C21.0481 21.8674 20.853 21.8287 20.656 21.8287C20.459 21.8288 20.264 21.8676 20.082 21.943C19.9 22.0185 19.7346 22.129 19.5954 22.2683C19.4561 22.4077 19.3457 22.5731 19.2703 22.7551C19.195 22.9371 19.1562 23.1322 19.1563 23.3292C19.1563 23.5262 19.1951 23.7213 19.2706 23.9032C19.346 24.0852 19.4565 24.2506 19.5959 24.3898C19.8773 24.6711 20.2589 24.8291 20.6567 24.829C21.0546 24.8289 21.4361 24.6707 21.7174 24.3893C21.9986 24.108 22.1566 23.7264 22.1565 23.3285C22.1564 22.9306 21.9983 22.5491 21.7169 22.2678Z" stroke="white" stroke-width="1.5" stroke-linecap="round" stroke-linejoin="round"/>
</svg>
