<svg width="43" height="43" viewBox="0 0 43 43" fill="none" xmlns="http://www.w3.org/2000/svg">
<g id="figma">
<g id="figma_2">
<path id="Vector" d="M14.3346 43.0003C18.2906 43.0003 21.5013 39.7896 21.5013 35.8336V28.667H14.3346C10.3786 28.667 7.16797 31.8777 7.16797 35.8336C7.16797 39.7896 10.3786 43.0003 14.3346 43.0003Z" fill="url(#paint0_linear_545_1698)"/>
<path id="Vector_2" d="M7.16797 21.4997C7.16797 17.5437 10.3786 14.333 14.3346 14.333H21.5013V28.6663H14.3346C10.3786 28.6663 7.16797 25.4557 7.16797 21.4997Z" fill="url(#paint1_linear_545_1698)"/>
<path id="Vector_3" d="M7.16797 7.16666C7.16797 3.21067 10.3786 0 14.3346 0H21.5013V14.3333H14.3346C10.3786 14.3333 7.16797 11.1227 7.16797 7.16666Z" fill="url(#paint2_linear_545_1698)"/>
<path id="Vector_4" d="M21.5 0H28.6667C32.6227 0 35.8334 3.21067 35.8334 7.16666C35.8334 11.1227 32.6227 14.3333 28.6667 14.3333H21.5V0Z" fill="url(#paint3_linear_545_1698)"/>
<path id="Vector_5" d="M35.8334 21.4997C35.8334 25.4557 32.6227 28.6663 28.6667 28.6663C24.7107 28.6663 21.5 25.4557 21.5 21.4997C21.5 17.5437 24.7107 14.333 28.6667 14.333C32.6227 14.333 35.8334 17.5437 35.8334 21.4997Z" fill="url(#paint4_linear_545_1698)"/>
</g>
</g>
<defs>
<linearGradient id="paint0_linear_545_1698" x1="14.3346" y1="28.667" x2="14.3346" y2="43.0003" gradientUnits="userSpaceOnUse">
<stop stop-color="#F8F8F8" stop-opacity="0.9"/>
<stop offset="1" stop-color="#F8F8F8" stop-opacity="0.3"/>
</linearGradient>
<linearGradient id="paint1_linear_545_1698" x1="14.3346" y1="14.333" x2="14.3346" y2="28.6663" gradientUnits="userSpaceOnUse">
<stop stop-color="#F8F8F8" stop-opacity="0.9"/>
<stop offset="1" stop-color="#F8F8F8" stop-opacity="0.3"/>
</linearGradient>
<linearGradient id="paint2_linear_545_1698" x1="14.3346" y1="0" x2="14.3346" y2="14.3333" gradientUnits="userSpaceOnUse">
<stop stop-color="#F8F8F8" stop-opacity="0.9"/>
<stop offset="1" stop-color="#F8F8F8" stop-opacity="0.3"/>
</linearGradient>
<linearGradient id="paint3_linear_545_1698" x1="28.6667" y1="0" x2="28.6667" y2="14.3333" gradientUnits="userSpaceOnUse">
<stop stop-color="#F8F8F8" stop-opacity="0.9"/>
<stop offset="1" stop-color="#F8F8F8" stop-opacity="0.3"/>
</linearGradient>
<linearGradient id="paint4_linear_545_1698" x1="28.6667" y1="14.333" x2="28.6667" y2="28.6663" gradientUnits="userSpaceOnUse">
<stop stop-color="#F8F8F8" stop-opacity="0.9"/>
<stop offset="1" stop-color="#F8F8F8" stop-opacity="0.3"/>
</linearGradient>
</defs>
</svg>
