<svg width="30" height="44" viewBox="0 0 30 44" fill="none" xmlns="http://www.w3.org/2000/svg">
<path d="M28.2563 28.2563C28.7212 28.7212 28.3916 29.5156 27.7348 29.5156H15.4957C15.0874 29.5156 14.7578 29.8452 14.7578 30.2535V42.4927C14.7578 43.1494 13.9633 43.479 13.4985 43.0141L0.287777 29.8034C0.103305 29.6189 0 29.368 0 29.1073V15.4957C0 15.0874 0.329591 14.7578 0.737891 14.7578H14.7578L28.2563 28.2563Z" fill="url(#paint0_linear_545_1672)"/>
<path d="M14.757 14.7578L1.25857 1.25933C0.793697 0.794462 1.12329 0 1.78001 0H28.777C29.1853 0 29.5149 0.329591 29.5149 0.737891V14.0199C29.5149 14.4282 29.1853 14.7578 28.777 14.7578H14.757Z" fill="url(#paint1_linear_545_1672)"/>
<defs>
<linearGradient id="paint0_linear_545_1672" x1="14.2369" y1="14.7578" x2="14.2369" y2="43.2317" gradientUnits="userSpaceOnUse">
<stop stop-color="#F8F8F8" stop-opacity="0.9"/>
<stop offset="1" stop-color="#F8F8F8" stop-opacity="0.3"/>
</linearGradient>
<linearGradient id="paint1_linear_545_1672" x1="15.2779" y1="0" x2="15.2779" y2="14.7578" gradientUnits="userSpaceOnUse">
<stop stop-color="#F8F8F8" stop-opacity="0.9"/>
<stop offset="1" stop-color="#F8F8F8" stop-opacity="0.3"/>
</linearGradient>
</defs>
</svg>
