<svg width="42" height="42" viewBox="0 0 42 42" fill="none" xmlns="http://www.w3.org/2000/svg">
<g clip-path="url(#clip0_545_1692)">
<g clip-path="url(#clip1_545_1692)">
<path d="M3.33196 1.79031L26.3451 0.094345C29.1712 -0.147738 29.8975 0.015495 31.6737 1.30476L39.0206 6.46875C40.2338 7.35685 40.6377 7.59893 40.6377 8.56588V36.8869C40.6377 38.6617 39.9903 39.7116 37.7299 39.8721L11.0053 41.4864C9.30657 41.5667 8.50009 41.3246 7.61061 40.1944L2.20177 33.1754C1.22929 31.8833 0.828125 30.9164 0.828125 29.7862V4.61231C0.828125 3.1612 1.47552 1.95078 3.33196 1.79031Z" fill="url(#paint0_linear_545_1692)" fill-opacity="0.8"/>
<path fill-rule="evenodd" clip-rule="evenodd" d="M26.3465 0.094345L3.32919 1.79031C1.47552 1.95078 0.828125 3.1612 0.828125 4.61231V29.7862C0.828125 30.9164 1.23068 31.8833 2.20039 33.1754L7.61061 40.1944C8.50009 41.3246 9.30658 41.5667 11.0039 41.4864L37.7313 39.8721C39.9917 39.7116 40.6391 38.6617 40.6391 36.8869V8.56588C40.6391 7.64873 40.2753 7.38451 39.2046 6.60155L39.022 6.46875L31.6765 1.30476C29.8989 0.015495 29.1726 -0.147738 26.3451 0.094345H26.3465ZM11.6084 8.10246C9.42693 8.2491 8.93031 8.2823 7.69223 7.27661L4.54238 4.77555C4.22006 4.45185 4.38191 4.04791 5.18839 3.96768L27.3148 2.35471C29.1712 2.19286 30.141 2.83888 30.8672 3.40328L34.6631 6.14643C34.8249 6.22805 35.2275 6.71083 34.7433 6.71083L11.8906 8.0831L11.6084 8.10246ZM9.06449 36.6448V12.6024C9.06449 11.5525 9.38819 11.0683 10.3565 10.9867L36.5997 9.45398C37.4892 9.37375 37.8932 9.93815 37.8932 10.9867V34.8686C37.8932 35.9185 37.7313 36.8066 36.2774 36.8869L11.1644 38.3394C9.71189 38.4196 9.06449 37.9368 9.06449 36.6448ZM33.8566 13.8917C34.0171 14.618 33.8566 15.3442 33.1276 15.4272L31.9185 15.6665V33.4175C30.8672 33.9819 29.8989 34.3042 29.091 34.3042C27.799 34.3042 27.4753 33.9002 26.5069 32.6912L18.5929 20.2661V32.2873L21.0967 32.8531C21.0967 32.8531 21.0967 34.3056 19.0771 34.3056L13.5064 34.6279C13.3445 34.3042 13.5064 33.4977 14.0708 33.3372L15.5247 32.9347V17.0402L13.5064 16.8769C13.3445 16.1507 13.7471 15.1021 14.8786 15.0219L20.8546 14.618L29.091 27.2063V16.0705L26.9911 15.8298C26.8306 14.9403 27.4753 14.2956 28.2831 14.2154L33.8566 13.8917Z" fill="url(#paint1_linear_545_1692)" fill-opacity="0.8"/>
</g>
</g>
<defs>
<linearGradient id="paint0_linear_545_1692" x1="20.7329" y1="0" x2="20.7329" y2="41.5005" gradientUnits="userSpaceOnUse">
<stop stop-color="#F8F8F8" stop-opacity="0.9"/>
<stop offset="1" stop-color="#F8F8F8" stop-opacity="0.3"/>
</linearGradient>
<linearGradient id="paint1_linear_545_1692" x1="20.7336" y1="0" x2="20.7336" y2="41.5005" gradientUnits="userSpaceOnUse">
<stop stop-color="#F8F8F8" stop-opacity="0.9"/>
<stop offset="1" stop-color="#F8F8F8" stop-opacity="0.3"/>
</linearGradient>
<clipPath id="clip0_545_1692">
<rect width="41.5" height="41.5" fill="white"/>
</clipPath>
<clipPath id="clip1_545_1692">
<rect width="40.1167" height="41.5" fill="white" transform="translate(0.830078)"/>
</clipPath>
</defs>
</svg>
