<svg width="40" height="40" viewBox="0 0 40 40" fill="none" xmlns="http://www.w3.org/2000/svg">
<path fill-rule="evenodd" clip-rule="evenodd" d="M8.72551 0.605979C15.9548 -0.201986 23.4278 -0.202 30.6571 0.605979C34.8531 1.07505 38.2401 4.3804 38.7333 8.59817C39.5979 15.9897 39.5979 23.4567 38.7333 30.8482C38.2401 35.0659 34.8529 38.3714 30.6571 38.8404C23.4278 39.6485 15.9548 39.6484 8.72551 38.8404C4.52947 38.3715 1.14171 35.066 0.648362 30.8482C-0.21612 23.4567 -0.21612 15.9897 0.648361 8.59817C1.14171 4.3803 4.52947 1.07495 8.72551 0.605979ZM30.3095 3.71438C23.3111 2.93221 16.0715 2.93224 9.07317 3.71438C6.29935 4.02439 4.07725 6.21358 3.75578 8.96145C2.91952 16.1116 2.91952 23.3347 3.75578 30.4849C4.07721 33.2326 6.29932 35.4221 9.07317 35.732C16.0715 36.5142 23.3111 36.5142 30.3095 35.732C33.0833 35.4221 35.3055 33.2327 35.6269 30.4849C36.4631 23.3347 36.4631 16.1116 35.6269 8.96145C35.3055 6.21356 33.0833 4.02439 30.3095 3.71438ZM25.954 15.5982C27.1925 15.5982 28.2706 15.9192 28.913 16.2632L28.3632 18.2593C27.8815 17.984 26.9863 17.6167 25.9999 17.6167C24.9908 17.6168 24.4405 18.0987 24.4404 18.7866C24.4404 19.4977 24.9675 19.8426 26.3896 20.3472C28.4083 21.0813 29.3491 22.1135 29.372 23.7652C29.3719 25.7838 27.7892 27.2749 24.83 27.2749C23.4769 27.2749 22.2613 26.9308 21.4355 26.4722L21.9853 24.4302C22.6276 24.8202 23.8441 25.2329 24.8534 25.2329C26.0918 25.2328 26.6424 24.7285 26.6425 23.9947C26.6425 23.2377 26.1837 22.8474 24.8075 22.3657C22.6282 21.6087 21.7104 20.4155 21.7333 19.1079C21.7334 17.1352 23.362 15.5982 25.954 15.5982ZM15.1474 11.4458C17.212 11.4458 18.7264 11.8817 19.7128 12.7075C20.6303 13.4645 21.2264 14.6806 21.2265 16.1255C21.2265 17.5934 20.7678 18.8094 19.8964 19.6353C18.7723 20.7593 17.0055 21.2876 15.0097 21.2876C14.4823 21.2876 14.0007 21.2646 13.6337 21.1958L13.6337 27.022H10.8349L10.8349 11.7671C11.8442 11.5836 13.2435 11.4458 15.1474 11.4458ZM15.2616 13.603C14.4821 13.6031 13.9319 13.672 13.6337 13.7407L13.6337 18.9702C13.9778 19.0619 14.4364 19.0855 15.0097 19.0855C17.1202 19.0855 18.4052 18.0529 18.4052 16.2407C18.4052 14.5203 17.2116 13.603 15.2616 13.603Z" fill="url(#paint0_linear_545_1686)"/>
<defs>
<linearGradient id="paint0_linear_545_1686" x1="19.6909" y1="0" x2="19.6909" y2="39.4464" gradientUnits="userSpaceOnUse">
<stop stop-color="#F8F8F8" stop-opacity="0.9"/>
<stop offset="1" stop-color="#F8F8F8" stop-opacity="0.3"/>
</linearGradient>
</defs>
</svg>
