<svg width="42" height="38" viewBox="0 0 42 38" fill="none" xmlns="http://www.w3.org/2000/svg">
<path fill-rule="evenodd" clip-rule="evenodd" d="M8.50537 13.4746L20.9982 37.7887L0 13.4746H8.50537Z" fill="#B6B5B4"/>
<path fill-rule="evenodd" clip-rule="evenodd" d="M33.4946 13.4746L21.0018 37.7887L42 13.4746H33.4946Z" fill="#B6B5B4"/>
<path fill-rule="evenodd" clip-rule="evenodd" d="M8.50391 13.4746H33.4896L20.9968 37.7887L8.50391 13.4746Z" fill="white"/>
<path fill-rule="evenodd" clip-rule="evenodd" d="M20.9967 0L9.16145 1.244L8.50391 13.4749L20.9967 0Z" fill="#979797"/>
<path fill-rule="evenodd" clip-rule="evenodd" d="M20.9954 0L32.8307 1.244L33.4883 13.4749L20.9954 0Z" fill="#979797"/>
<path fill-rule="evenodd" clip-rule="evenodd" d="M42 13.474L32.8371 1.24316L33.4946 13.474H42Z" fill="white"/>
<path fill-rule="evenodd" clip-rule="evenodd" d="M0 13.474L9.1629 1.24316L8.50536 13.474H0Z" fill="white"/>
<path fill-rule="evenodd" clip-rule="evenodd" d="M20.9968 0L8.50391 13.4749H33.4896L20.9968 0Z" fill="#FEEEB7"/>
</svg>
