<svg width="33" height="38" viewBox="0 0 33 38" fill="none" xmlns="http://www.w3.org/2000/svg">
<g id="xd">
<g id="xd_2">
<path id="Vector" d="M1.72917 0.379883H26.2708C29.9917 0.379883 33 3.38822 33 7.10905V30.7007C33 34.4216 29.9917 37.4299 26.2708 37.4299H1.72917C-1.99167 37.4299 -5 34.4216 -5 30.7007V7.10905C-5 3.38822 -1.99167 0.379883 1.72917 0.379883Z" fill="url(#paint0_linear_545_1664)"/>
<path id="Vector_2" d="M14.9794 10.1174L10.2294 17.9549L15.2961 26.2674C15.3277 26.3307 15.3436 26.394 15.3277 26.4574C15.3119 26.5207 15.2486 26.4732 15.1536 26.489H11.5277C11.2744 26.489 11.1002 26.4732 10.9894 26.3149C10.6569 25.6499 10.3086 25.0007 9.97608 24.3357C9.64358 23.6866 9.27942 23.0215 8.89942 22.3407C8.51941 21.6599 8.13941 20.979 7.75941 20.2824H7.72775C7.39525 20.9632 7.03108 21.6441 6.66691 22.3249C6.30275 23.0057 5.93858 23.6865 5.59025 24.3515C5.22608 25.0165 4.86191 25.6974 4.49775 26.3465C4.43441 26.5049 4.30775 26.5207 4.13358 26.5207H0.650248C0.586915 26.5207 0.539415 26.5524 0.539415 26.4732C0.523581 26.4099 0.539415 26.3465 0.571081 26.299L5.49525 18.224L0.697748 10.1015C0.650248 10.0382 0.634414 9.97488 0.666081 9.94322C0.697748 9.89572 0.761081 9.87988 0.824414 9.87988H4.41858C4.49775 9.87988 4.57691 9.89572 4.64025 9.91155C4.70358 9.94322 4.75108 9.99072 4.79858 10.054C5.09941 10.7349 5.44775 11.4157 5.81191 12.0965C6.19192 12.7774 6.55608 13.4424 6.95191 14.1074C7.33191 14.7724 7.68025 15.4374 8.01275 16.1182H8.04441C8.37691 15.4215 8.72525 14.7407 9.07358 14.0757C9.42192 13.4107 9.78608 12.7457 10.1502 12.0807C10.5144 11.4157 10.8627 10.7349 11.2111 10.0857C11.2269 10.0224 11.2586 9.95905 11.3061 9.92738C11.3694 9.89572 11.4327 9.87988 11.5119 9.89572H14.8527C14.9319 9.87988 15.0111 9.92738 15.0269 10.0065C15.0427 10.0224 15.0111 10.0857 14.9794 10.1174Z" fill="url(#paint1_linear_545_1664)"/>
<path id="Vector_3" d="M22.2953 26.8216C21.1237 26.8375 19.952 26.6 18.8912 26.1091C17.8937 25.65 17.0703 24.89 16.5003 23.9558C15.9145 22.99 15.6295 21.7866 15.6295 20.3458C15.6137 19.1741 15.9145 18.0183 16.5003 17.005C17.102 15.9758 17.9728 15.1208 19.0178 14.5508C20.1262 13.9333 21.4562 13.6325 23.0237 13.6325C23.1028 13.6325 23.2137 13.6325 23.3562 13.6483C23.4987 13.6641 23.657 13.6641 23.847 13.68V8.67663C23.847 8.56579 23.8945 8.50246 24.0053 8.50246H27.2195C27.2987 8.48663 27.362 8.54996 27.3778 8.61329C27.3778 8.62913 27.3778 8.64496 27.3778 8.64496V23.7183C27.3778 24.0033 27.3937 24.32 27.4095 24.6683C27.4412 25.0008 27.457 25.3175 27.4728 25.5866C27.4728 25.6975 27.4253 25.7925 27.3145 25.84C26.4912 26.1883 25.6203 26.4416 24.7337 26.6C23.9262 26.7425 23.1187 26.8216 22.2953 26.8216ZM23.847 23.655V16.6883C23.7045 16.6566 23.562 16.625 23.4195 16.6091C23.2453 16.5933 23.0712 16.5775 22.897 16.5775C22.2795 16.5775 21.662 16.7041 21.1078 16.9891C20.5695 17.2583 20.1103 17.6541 19.762 18.1608C19.4137 18.6675 19.2395 19.3483 19.2395 20.1716C19.2237 20.7258 19.3187 21.28 19.5087 21.8025C19.667 22.23 19.9045 22.61 20.2212 22.9266C20.522 23.2116 20.8862 23.4333 21.2978 23.56C21.7253 23.7025 22.1687 23.7658 22.612 23.7658C22.8495 23.7658 23.0712 23.75 23.277 23.7341C23.4828 23.75 23.657 23.7183 23.847 23.655Z" fill="url(#paint2_linear_545_1664)"/>
</g>
</g>
<defs>
<linearGradient id="paint0_linear_545_1664" x1="14" y1="0.379883" x2="14" y2="37.4299" gradientUnits="userSpaceOnUse">
<stop stop-color="#F8F8F8" stop-opacity="0.9"/>
<stop offset="1" stop-color="#F8F8F8" stop-opacity="0.3"/>
</linearGradient>
<linearGradient id="paint1_linear_545_1664" x1="7.93358" y1="9.87988" x2="7.93358" y2="26.527" gradientUnits="userSpaceOnUse">
<stop stop-color="#F8F8F8" stop-opacity="0.9"/>
<stop offset="1" stop-color="#F8F8F8" stop-opacity="0.3"/>
</linearGradient>
<linearGradient id="paint2_linear_545_1664" x1="21.5509" y1="8.5" x2="21.5509" y2="26.8224" gradientUnits="userSpaceOnUse">
<stop stop-color="#F8F8F8" stop-opacity="0.9"/>
<stop offset="1" stop-color="#F8F8F8" stop-opacity="0.3"/>
</linearGradient>
</defs>
</svg>
