<svg width="54" height="50" viewBox="0 0 54 50" fill="none" xmlns="http://www.w3.org/2000/svg">
<g id="aws">
<g id="aws_2">
<path id="Vector" d="M16.0895 18.1591C16.0895 19.188 16.156 20.0223 16.2725 20.6341C16.4055 21.2459 16.5718 21.9133 16.8046 22.6363C16.8877 22.8588 16.921 23.0812 16.921 23.2759C16.921 23.554 16.8212 23.8321 16.605 24.1102L15.5574 25.2781C15.4077 25.445 15.2581 25.5284 15.125 25.5284C14.9587 25.5284 14.7924 25.3894 14.6261 25.1391C14.3933 24.722 14.1938 24.277 14.0275 23.8321C13.8612 23.3593 13.6949 22.831 13.512 22.1914C12.2149 24.7498 10.5852 26.029 8.62289 26.029C7.22601 26.029 6.11183 25.3616 5.29699 24.0267C4.48214 22.6919 4.06641 20.9122 4.06641 18.6875C4.06641 16.3237 4.56529 14.4049 5.57969 12.9589C6.59409 11.5128 7.94108 10.7898 9.65391 10.7898C10.2193 10.7898 10.8013 10.8732 11.4166 11.0123C12.0319 11.1513 12.6639 11.3738 13.329 11.624V9.59401C13.329 7.48055 13.063 6.00668 12.5474 5.14461C12.0153 4.28254 11.1173 3.86541 9.83684 3.86541C9.25481 3.86541 8.65614 3.97665 8.04085 4.22693C7.42556 4.4772 6.8269 4.7831 6.24487 5.17242C5.9788 5.36708 5.77924 5.47832 5.66284 5.53394C5.54643 5.58955 5.46328 5.61736 5.39677 5.61736C5.16395 5.61736 5.04755 5.33927 5.04755 4.75529V3.39266C5.04755 2.94772 5.08081 2.61402 5.16395 2.41936C5.2471 2.2247 5.39677 2.03004 5.62958 1.83538C6.21161 1.33482 6.91005 0.917688 7.72489 0.583983C8.53974 0.22247 9.40447 0.0556174 10.3191 0.0556174C12.298 0.0556174 13.7448 0.806453 14.676 2.30812C15.5906 3.80979 16.0563 6.09011 16.0563 9.14907V18.1591H16.0895ZM9.33795 22.386C9.88673 22.386 10.4521 22.2192 11.0508 21.8855C11.6495 21.5518 12.1816 20.94 12.6306 20.1057C12.8967 19.5773 13.0962 18.9934 13.196 18.3259C13.2958 17.6585 13.3623 16.8521 13.3623 15.9066V14.7386C12.88 14.544 12.3645 14.3771 11.8324 14.2659C11.3002 14.1546 10.7847 14.099 10.2692 14.099C9.15503 14.099 8.34018 14.4605 7.79141 15.2114C7.24264 15.9622 6.97657 17.0189 6.97657 18.4094C6.97657 19.7164 7.17612 20.6897 7.59186 21.3571C7.99097 22.0523 8.573 22.386 9.33795 22.386ZM22.6914 25.3894C22.3921 25.3894 22.1925 25.3059 22.0595 25.1113C21.9265 24.9444 21.8101 24.5551 21.7103 24.0267L17.8024 2.53059C17.7026 1.97442 17.6527 1.61291 17.6527 1.41824C17.6527 0.973305 17.7857 0.723027 18.0518 0.723027H19.6815C19.9975 0.723027 20.2136 0.806453 20.33 1.00111C20.4631 1.16797 20.5629 1.55729 20.6626 2.08565L23.4564 20.495L26.0506 2.08565C26.1337 1.52948 26.2335 1.16797 26.3665 1.00111C26.4996 0.834262 26.7324 0.723027 27.0317 0.723027H28.3621C28.678 0.723027 28.8942 0.806453 29.0273 1.00111C29.1603 1.16797 29.2767 1.55729 29.3432 2.08565L31.9707 20.7175L34.8476 2.08565C34.9474 1.52948 35.0638 1.16797 35.1802 1.00111C35.3132 0.834262 35.5294 0.723027 35.8287 0.723027H37.3753C37.6413 0.723027 37.791 0.945497 37.791 1.41824C37.791 1.55729 37.7744 1.69633 37.7577 1.86318C37.7411 2.03004 37.7079 2.25251 37.6413 2.5584L33.6336 24.0545C33.5339 24.6107 33.4174 24.9722 33.2844 25.1391C33.1514 25.3059 32.9352 25.4172 32.6525 25.4172H31.2224C30.9064 25.4172 30.6902 25.3337 30.5572 25.1391C30.4241 24.9444 30.3077 24.5829 30.2412 24.0267L27.6636 6.09011L25.1027 23.9989C25.0196 24.5551 24.9198 24.9166 24.7867 25.1113C24.6537 25.3059 24.4209 25.3894 24.1216 25.3894H22.6914ZM44.0603 26.1402C43.1956 26.1402 42.3309 25.9733 41.4994 25.6396C40.6679 25.3059 40.0194 24.9444 39.587 24.5273C39.3209 24.277 39.138 23.9989 39.0715 23.7486C39.005 23.4984 38.9717 23.2203 38.9717 22.97V21.5518C38.9717 20.9678 39.1047 20.6897 39.3542 20.6897C39.454 20.6897 39.5537 20.7175 39.6535 20.7731C39.7533 20.8287 39.903 20.94 40.0692 21.0512C40.6346 21.4683 41.2499 21.802 41.8985 22.0245C42.5637 22.247 43.2122 22.3582 43.8774 22.3582C44.9251 22.3582 45.7399 22.0523 46.3053 21.4405C46.8707 20.8287 47.17 19.9389 47.17 18.7987C47.17 18.0201 47.0204 17.3805 46.721 16.8521C46.4217 16.3237 45.8563 15.851 45.0415 15.406L42.6302 14.1546C41.4162 13.515 40.5182 12.5695 39.9695 11.3182C39.4207 10.0946 39.138 8.73194 39.138 7.28588C39.138 6.11792 39.2877 5.089 39.587 4.19912C39.8863 3.30924 40.2854 2.53059 40.7843 1.9188C41.2832 1.2792 41.8486 0.806453 42.5138 0.472748C43.179 0.139044 43.8774 0 44.6091 0C44.9749 0 45.3574 0.0278087 45.7233 0.111235C46.1058 0.194661 46.455 0.305896 46.8042 0.417131C47.1368 0.556174 47.4527 0.695218 47.7521 0.86207C48.0514 1.02892 48.2842 1.19578 48.4505 1.36263C48.6833 1.5851 48.8496 1.80757 48.9494 2.05785C49.0492 2.28032 49.0991 2.58621 49.0991 2.97553V4.28254C49.0991 4.86653 48.966 5.17242 48.7166 5.17242C48.5835 5.17242 48.3674 5.06119 48.0847 4.83872C47.1368 4.11569 46.0725 3.75418 44.8918 3.75418C43.9439 3.75418 43.1956 4.00446 42.6801 4.53282C42.1646 5.06119 41.8985 5.86764 41.8985 7.0078C41.8985 7.78644 42.0648 8.45385 42.3974 8.98222C42.73 9.51058 43.3453 10.0389 44.2266 10.5117L46.588 11.7631C47.7853 12.4027 48.6501 13.2926 49.1656 14.4327C49.6811 15.5729 49.9305 16.8799 49.9305 18.3259C49.9305 19.5217 49.7809 20.6063 49.4982 21.5518C49.1988 22.4973 48.7997 23.3315 48.2842 23.9989C47.7687 24.6941 47.1534 25.1947 46.4383 25.5562C45.69 25.9455 44.9084 26.1402 44.0603 26.1402Z" fill="white"/>
<path id="Vector_2" fill-rule="evenodd" clip-rule="evenodd" d="M47.2042 39.6552C41.7331 46.4127 33.7842 50 26.9495 50C17.371 50 8.74026 44.0768 2.22151 34.2325C1.70599 33.4538 2.17162 32.3971 2.78691 33.0089C9.83781 39.8498 18.535 43.9933 27.5316 43.9933C33.6013 43.9933 40.2697 41.8799 46.406 37.5417C47.3206 36.8465 48.1022 38.5428 47.2042 39.6552Z" fill="#FF9900"/>
<path id="Vector_3" fill-rule="evenodd" clip-rule="evenodd" d="M49.4824 35.3166C48.784 33.8149 44.8595 34.5935 43.0801 34.955C42.548 35.0663 42.4648 34.2876 42.9471 33.7036C46.0734 30.0329 51.2119 31.0896 51.8105 32.3132C52.4092 33.5646 51.6442 42.1575 48.7175 46.2732C48.2685 46.9128 47.8361 46.5791 48.0357 45.7448C48.7008 42.9918 50.1809 36.7904 49.4824 35.3166Z" fill="#FF9900"/>
</g>
</g>
</svg>
