<svg width="50" height="50" viewBox="0 0 50 50" fill="none" xmlns="http://www.w3.org/2000/svg">
<g clip-path="url(#clip0_545_4707)">
<path d="M2.00586 23.8374C2.00586 15.3202 6.44836 7.45296 13.6569 3.1931C17.2094 1.10014 21.2232 0 25.3068 0C29.3903 0 33.4041 1.10014 36.9566 3.1931C44.1651 7.45296 48.6076 15.3202 48.6076 23.8374C48.6076 37.002 38.1761 47.6741 25.308 47.6741C12.4398 47.6741 2.00586 36.9995 2.00586 23.8374Z" fill="#FF9D0B"/>
<path d="M25.309 45.214C36.847 45.214 46.2034 35.6418 46.2034 23.8372C46.2034 12.0326 36.847 2.46289 25.309 2.46289C13.7685 2.46289 4.41211 12.0326 4.41211 23.8372C4.41211 35.6418 13.7685 45.2114 25.309 45.2114V45.214Z" fill="#FFD21E"/>
<path d="M25.1556 32.7822C31.0653 32.7822 32.9726 27.3924 32.9726 24.625C32.9726 23.185 32.0274 23.64 30.5121 24.4025C29.1122 25.11 27.2289 26.0899 25.1628 26.0899C20.8381 26.0899 17.3457 21.8576 17.3457 24.625C17.3457 27.3924 19.2459 32.7822 25.1628 32.7822H25.1556Z" fill="#FF323D"/>
<path d="M32.0928 18.0254C32.8625 18.2954 33.1631 19.9078 33.9376 19.4879C35.0128 18.9054 35.6381 17.7179 35.5227 16.478C35.4628 15.8684 35.2298 15.2912 34.8533 14.8198C34.4768 14.3483 33.9738 14.004 33.4085 13.8305C32.841 13.6521 32.2356 13.6502 31.6671 13.8253C31.0986 14.0003 30.5919 14.3445 30.2095 14.8155C29.435 15.7755 29.3027 17.1154 29.8727 18.2154C30.2407 18.9229 31.4073 17.7729 32.0976 18.0179L32.0928 18.0254ZM17.9331 18.0254C17.1634 18.2954 16.8555 19.9078 16.0858 19.4879C15.5633 19.2074 15.1335 18.7709 14.8515 18.2346C14.5694 17.6982 14.4481 17.0865 14.5032 16.478C14.6186 15.2405 15.4532 14.1955 16.615 13.8305C17.1825 13.6521 17.7879 13.6502 18.3564 13.8253C18.9249 14.0003 19.4316 14.3445 19.814 14.8155C20.5885 15.7755 20.7208 17.1154 20.1507 18.2154C19.7851 18.9229 18.6113 17.7729 17.9259 18.0179L17.9331 18.0254ZM20.627 31.375C20.9475 30.7117 21.3958 30.124 21.944 29.6483C22.4923 29.1727 23.1287 28.8193 23.8139 28.6101C23.9823 28.5601 24.1603 28.76 24.3407 29.0375L24.8025 29.8025C24.9684 30.0525 25.1368 30.24 25.3052 30.24C25.4832 30.24 25.666 30.055 25.8415 29.81L26.3346 29.055C26.527 28.78 26.7122 28.5851 26.8974 28.6425C28.1891 29.0625 29.269 29.9825 29.904 31.2075C32.1457 29.3975 32.9707 26.4451 32.9707 24.6252C32.9707 23.3552 32.2347 23.5602 31.0225 24.1502L29.5408 24.8902C28.2901 25.4902 26.7796 26.0901 25.1536 26.0901C23.5277 26.0901 22.022 25.4902 20.7689 24.8902L19.3522 24.1827C18.1014 23.5627 17.3366 23.3277 17.3366 24.6252C17.3366 26.3826 18.1062 29.2025 20.1916 31.025L20.6245 31.375H20.627Z" fill="#3A3B45"/>
<path d="M39.4364 20.916C39.6912 20.9183 39.9439 20.8683 40.1801 20.7691C40.4163 20.6698 40.6314 20.5231 40.813 20.3373C40.9946 20.1516 41.1392 19.9304 41.2385 19.6866C41.3379 19.4427 41.3899 19.1808 41.3918 18.916C41.3918 17.8136 40.5163 16.9161 39.4364 16.9161C39.1818 16.9141 38.9293 16.9643 38.6934 17.0637C38.4574 17.1632 38.2427 17.3099 38.0613 17.4956C37.8799 17.6813 37.7355 17.9024 37.6364 18.1461C37.5372 18.3898 37.4852 18.6514 37.4833 18.916C37.4833 20.021 38.3588 20.916 39.4364 20.916ZM11.4777 20.916C11.7323 20.9179 11.9848 20.8678 12.2207 20.7683C12.4566 20.6689 12.6714 20.5221 12.8528 20.3364C13.0341 20.1507 13.1785 19.9297 13.2777 19.686C13.3769 19.4423 13.4289 19.1806 13.4308 18.916C13.4308 17.8136 12.5553 16.9161 11.4777 16.9161C11.2229 16.9138 10.9702 16.9637 10.734 17.063C10.4978 17.1623 10.2827 17.309 10.1011 17.4947C9.91946 17.6805 9.77486 17.9016 9.67553 18.1455C9.57621 18.3894 9.52411 18.6512 9.52222 18.916C9.52222 20.021 10.3977 20.916 11.4777 20.916ZM7.4537 27.6832C6.47958 27.6832 5.61369 28.0882 5.00756 28.8332C4.49053 29.4841 4.20737 30.3016 4.20661 31.1456C3.8277 31.0289 3.43521 30.9667 3.04006 30.9606C2.10923 30.9606 1.26739 31.3256 0.670889 31.9831C0.140912 32.5425 -0.19422 33.2698 -0.281363 34.0496C-0.368507 34.8294 -0.202674 35.6172 0.189839 36.2879C-0.340116 36.7297 -0.717473 37.3387 -0.88531 38.0229C-1.02963 38.5779 -1.17394 39.7478 -0.404259 40.9378C-0.693055 41.3898 -0.865295 41.9113 -0.904463 42.4524C-0.943632 42.9934 -0.848418 43.5359 -0.627948 44.0277C-0.0554973 45.3601 1.32031 46.4226 3.91798 47.5401L4.49524 47.7801C6.34248 48.53 8.03818 49.01 8.05021 49.015C10.1909 49.6225 12.3989 49.9525 14.6214 50C18.1451 50 20.6658 48.8925 22.1137 46.7151C24.3506 43.3602 24.139 40.2778 21.4547 37.3079L21.0915 36.9229C19.4271 35.213 18.3134 32.6981 18.0849 32.1431C17.6159 30.5056 16.3772 28.6857 14.3279 28.6857C13.2215 28.7032 12.1897 29.2682 11.5619 30.1981C10.9606 29.4232 10.3713 28.8157 9.84212 28.4632C9.13305 27.9735 8.30482 27.7031 7.4537 27.6832ZM43.4604 27.6832C44.4345 27.6832 45.3052 28.0882 45.9065 28.8332C46.426 29.4882 46.7074 30.3031 46.7074 31.1456C47.0875 31.0281 47.4819 30.9681 47.8788 30.9606C48.812 30.9606 49.6539 31.3256 50.248 31.9831C50.778 32.5425 51.1131 33.2698 51.2002 34.0496C51.2874 34.8294 51.1215 35.6172 50.729 36.2879C51.2582 36.7329 51.6358 37.3429 51.7994 38.0229C51.9437 38.5779 52.088 39.7478 51.3183 40.9378C51.9052 41.8628 51.9894 43.0277 51.542 44.0277C50.9696 45.3601 49.5938 46.4226 46.9985 47.5401L46.4236 47.7801C44.5716 48.53 42.8759 49.01 42.8639 49.015C40.7232 49.6225 38.5152 49.9525 36.2927 50C32.769 50 30.2483 48.8925 28.8003 46.7151C26.5634 43.3602 26.7751 40.2778 29.4594 37.3079L29.8226 36.9229C31.4942 35.213 32.6054 32.6981 32.8339 32.1431C33.303 30.5056 34.5369 28.6857 36.5861 28.6857C37.6926 28.7032 38.7244 29.2682 39.3522 30.1981C39.9535 29.4232 40.5428 28.8157 41.0792 28.4632C41.666 28.0582 42.3371 27.8007 43.037 27.7132L43.4604 27.6832Z" fill="#FF9D0B"/>
<path d="M20.1299 45.3291C21.7848 42.8441 21.6645 40.9792 19.3963 38.6618C17.1234 36.3419 15.8005 32.942 15.8005 32.942C15.8005 32.942 15.3074 30.972 14.1842 31.157C13.0585 31.342 12.2359 34.2819 14.5931 36.0844C16.943 37.8868 14.124 39.1093 13.2148 37.4193C12.3129 35.7269 9.83546 31.3795 8.54865 30.5421C7.26906 29.7121 6.36709 30.1721 6.66774 31.8945C6.9684 33.612 12.3369 37.7693 11.815 38.6618C11.2906 39.5668 9.45062 37.6118 9.45062 37.6118C9.45062 37.6118 3.69725 32.2495 2.43931 33.6495C1.18857 35.0444 3.3966 36.2144 6.52824 38.1568C9.67431 40.1017 9.91965 40.6192 9.47467 41.3567C9.02489 42.0942 2.09054 36.1069 1.44113 38.6493C0.791708 41.1767 8.51979 41.9092 8.04355 43.6641C7.5625 45.4141 2.59565 40.3542 1.58544 42.3217C0.563209 44.2966 8.59195 46.6165 8.65689 46.634C11.2425 47.324 17.8281 48.7814 20.1299 45.3291ZM30.79 45.3291C29.1376 42.8441 29.2507 40.9792 31.5236 38.6618C33.7918 36.3419 35.1147 32.942 35.1147 32.942C35.1147 32.942 35.6078 30.972 36.7382 31.157C37.8567 31.342 38.6793 34.2819 36.3293 36.0844C33.9722 37.8868 36.7984 39.1093 37.7003 37.4193C38.6071 35.7269 41.0845 31.3795 42.3665 30.5421C43.6461 29.7121 44.5553 30.1721 44.2474 31.8945C43.9468 33.612 38.5831 37.7693 39.1074 38.6618C39.6245 39.5668 41.4646 37.6118 41.4646 37.6118C41.4646 37.6118 47.2251 32.2495 48.4759 33.6495C49.7266 35.0444 47.5258 36.2144 44.3869 38.1568C41.2409 40.1017 41.0003 40.6192 41.4405 41.3567C41.8903 42.0942 48.8246 36.1069 49.474 38.6493C50.1235 41.1767 42.4026 41.9092 42.8764 43.6641C43.3575 45.4141 48.3195 40.3542 49.3345 42.3217C50.352 44.2966 42.3304 46.6165 42.2631 46.634C39.6726 47.324 33.0871 48.7814 30.79 45.3291Z" fill="#FFD21E"/>
</g>
<defs>
<clipPath id="clip0_545_4707">
<rect width="50" height="50" fill="white"/>
</clipPath>
</defs>
</svg>
