<svg width="50" height="50" viewBox="0 0 50 50" fill="none" xmlns="http://www.w3.org/2000/svg">
<mask id="mask0_545_4521" style="mask-type:luminance" maskUnits="userSpaceOnUse" x="0" y="0" width="50" height="50">
<path d="M0 0H50V50H0V0Z" fill="white"/>
</mask>
<g mask="url(#mask0_545_4521)">
<path fill-rule="evenodd" clip-rule="evenodd" d="M44.7352 27.292V20.7024C44.7352 19.5358 44.7352 18.8795 44.706 18.3983C44.7041 18.2611 44.6895 18.1244 44.6622 17.9899C44.602 17.8321 44.5176 17.6845 44.4122 17.5524C44.3098 17.463 44.198 17.3848 44.0789 17.3191C43.4276 16.9073 42.7656 16.5127 42.0935 16.1358L36.3768 12.8399C35.3706 12.2566 34.8018 11.9358 34.3643 11.7191C34.2507 11.6492 34.128 11.5953 33.9997 11.5587C33.8308 11.5296 33.6582 11.5296 33.4893 11.5587C33.4456 11.5587 33.3435 11.6149 33.1247 11.7191C32.6872 11.9358 32.1331 12.2566 31.1102 12.8399L25.3956 16.1337C24.3893 16.717 23.8206 17.0378 23.4122 17.317C23.2081 17.4483 23.1206 17.5212 23.0768 17.5503C22.9604 17.6746 22.8748 17.8245 22.8268 17.9878C22.8268 18.0316 22.7997 18.1483 22.7852 18.3962C22.756 18.8753 22.756 19.5337 22.756 20.7003V27.2941C22.756 28.4608 22.756 29.117 22.7852 29.5983C22.7997 29.8462 22.8143 29.9628 22.8268 30.0045C22.8872 30.167 22.9747 30.3128 23.0768 30.442C23.1039 30.4733 23.1914 30.5462 23.4102 30.6774C23.8206 30.9399 24.3747 31.2753 25.3956 31.8587L31.1122 35.1545C32.1185 35.7378 32.6872 36.0587 33.1247 36.2795C33.2391 36.3489 33.3625 36.4022 33.4914 36.4378C33.6603 36.467 33.8329 36.467 34.0018 36.4378C34.0435 36.4378 34.1477 36.3795 34.3664 36.2774C34.8039 36.0587 35.3581 35.7378 36.3789 35.1545L42.0956 31.8587C43.1018 31.2753 43.6706 30.9545 44.081 30.6774C44.2852 30.5462 44.3727 30.4733 44.4143 30.4441C44.5307 30.3198 44.6163 30.17 44.6643 30.0066C44.6643 29.9608 44.6935 29.8462 44.706 29.5983C44.7372 29.117 44.7372 28.4608 44.7372 27.2941L44.7352 27.292ZM48.3081 14.0066C47.6081 13.2337 46.6456 12.6774 44.7352 11.5691L39.0164 8.27326C37.0914 7.16492 36.1414 6.61076 35.1206 6.39201C34.2165 6.20266 33.283 6.20266 32.3789 6.39201C31.3581 6.61076 30.3956 7.16492 28.4852 8.27326L22.7706 11.5691C20.8435 12.6774 19.8956 13.2337 19.1977 14.0066C18.5852 14.692 18.1164 15.4941 17.8247 16.3691C17.5039 17.3587 17.5039 18.4691 17.5039 20.6858V27.2774C17.5039 29.4962 17.5039 30.6045 17.8247 31.5962C18.1164 32.4712 18.5852 33.2878 19.1977 33.9587C19.8956 34.7295 20.8602 35.2858 22.7706 36.3941L28.4872 39.6899C30.4143 40.7983 31.3622 41.3524 32.3831 41.5712C33.2872 41.7587 34.2185 41.7587 35.1247 41.5712C36.1456 41.3524 37.1081 40.7983 39.0206 39.6899L44.7372 36.3941C46.6622 35.2858 47.6122 34.7316 48.3102 33.9566C48.9227 33.2733 49.3893 32.4712 49.681 31.5962C50.0018 30.6045 50.0018 29.4962 50.0018 27.2774V20.6878C50.0018 18.4712 50.0018 17.3608 49.681 16.3712C49.3962 15.495 48.9269 14.6891 48.3081 14.0066Z" fill="#2D9CDB"/>
<path fill-rule="evenodd" clip-rule="evenodd" d="M27.2312 27.292V20.7024C27.2312 19.5358 27.2312 18.8795 27.2021 18.3983C27.201 18.2611 27.1871 18.1244 27.1604 17.9899C27.1002 17.8321 27.0158 17.6845 26.9104 17.5524C26.8079 17.463 26.6962 17.3848 26.5771 17.3191C25.9258 16.9073 25.2637 16.5127 24.5917 16.1358L18.8729 12.8378C17.8667 12.2545 17.3 11.9337 16.8604 11.717C16.7468 11.6471 16.6241 11.5931 16.4958 11.5566C16.3269 11.5275 16.1543 11.5275 15.9854 11.5566C15.9437 11.5566 15.8396 11.6128 15.6208 11.717C15.1833 11.9337 14.6292 12.2545 13.6083 12.8378L7.89167 16.1337C6.88542 16.717 6.31667 17.0378 5.90625 17.317C5.70208 17.4483 5.61458 17.5212 5.57292 17.5503C5.45654 17.6746 5.37092 17.8245 5.32292 17.9878C5.32292 18.0316 5.29375 18.1483 5.28125 18.3962C5.25 18.8753 5.25 19.5337 5.25 20.7003V27.2941C5.25 28.4608 5.25 29.117 5.27917 29.5983C5.27917 29.8462 5.30833 29.9628 5.32292 30.0045C5.38125 30.167 5.46875 30.3128 5.57292 30.442C5.67523 30.5322 5.78699 30.6112 5.90625 30.6774C6.31458 30.9399 6.86875 31.2753 7.89167 31.8587L13.6083 35.1545C14.6146 35.7378 15.1833 36.0587 15.6208 36.2795C15.7346 36.3487 15.8572 36.402 15.9854 36.4378C16.1543 36.467 16.3269 36.467 16.4958 36.4378C16.5396 36.4378 16.6417 36.3795 16.8604 36.2774C17.2979 36.0587 17.8521 35.7378 18.8729 35.1545L24.5917 31.8587C25.5979 31.2753 26.1667 30.9545 26.575 30.6774C26.7792 30.5462 26.8667 30.4733 26.9104 30.4441C27.0269 30.3198 27.1125 30.17 27.1604 30.0066C27.1604 29.9608 27.1875 29.8462 27.2021 29.5983C27.2312 29.117 27.2312 28.4587 27.2312 27.292ZM30.8062 14.0066C30.1062 13.2337 29.1417 12.6774 27.2312 11.5691L21.5146 8.27326C19.5896 7.16492 18.6396 6.61076 17.6187 6.39201C16.7147 6.20266 15.7812 6.20266 14.8771 6.39201C13.8562 6.61076 12.8937 7.16492 10.9812 8.27326L5.26667 11.5691C3.34167 12.6774 2.39375 13.2337 1.69375 14.0066C1.08125 14.692 0.614583 15.4941 0.322917 16.3691C0 17.3587 0 18.4691 0 20.6858V27.2774C0 29.4962 0 30.6045 0.320833 31.5962C0.6125 32.4712 1.07917 33.2878 1.69167 33.9587C2.39167 34.7295 3.35417 35.2858 5.26458 36.3941L10.9833 39.6899C12.9083 40.7983 13.8583 41.3524 14.8792 41.5712C15.7812 41.7587 16.7146 41.7587 17.6208 41.5712C18.6417 41.3524 19.6042 40.7983 21.5146 39.6899L27.2312 36.3941C29.1583 35.2858 30.1062 34.7316 30.8062 33.9566C31.4192 33.2713 31.8857 32.4681 32.1771 31.5962C32.4979 30.6045 32.4979 29.4962 32.4979 27.2774V20.6878C32.4979 18.4712 32.4979 17.3608 32.1771 16.3712C31.8921 15.4951 31.4249 14.6892 30.8062 14.0066Z" fill="#2F80ED"/>
<path d="M25.013 31.6094C25.1443 31.6823 25.2776 31.7552 25.4214 31.8427L30.163 34.5844C29.5214 35.0948 28.6297 35.6052 27.2464 36.4094L25.013 37.6906L22.7839 36.4094C21.3964 35.6073 20.5068 35.0969 19.8672 34.5844L24.6068 31.8427C24.7526 31.7552 24.8818 31.6823 25.013 31.6094Z" fill="#2F80ED"/>
</g>
</svg>
