<svg width="50" height="50" viewBox="0 0 50 50" fill="none" xmlns="http://www.w3.org/2000/svg">
<g clip-path="url(#clip0_545_4512)">
<mask id="mask0_545_4512" style="mask-type:luminance" maskUnits="userSpaceOnUse" x="0" y="0" width="50" height="50">
<path d="M0 0H50V50H0V0Z" fill="white"/>
</mask>
<g mask="url(#mask0_545_4512)">
<g filter="url(#filter0_i_545_4512)">
<path fill-rule="evenodd" clip-rule="evenodd" d="M25 0C38.8062 0 50 11.1937 50 25C50 38.8062 38.8062 50 25 50C11.1937 50 0 38.8062 0 25C0 11.1937 11.1937 0 25 0ZM25 7.55625C20.3736 7.55625 15.9367 9.39407 12.6654 12.6654C9.39407 15.9367 7.55625 20.3736 7.55625 25C7.55625 29.6264 9.39407 34.0633 12.6654 37.3346C15.9367 40.6059 20.3736 42.4437 25 42.4437C29.6264 42.4437 34.0633 40.6059 37.3346 37.3346C40.6059 34.0633 42.4437 29.6264 42.4437 25C42.4437 20.3736 40.6059 15.9367 37.3346 12.6654C34.0633 9.39407 29.6264 7.55625 25 7.55625Z" fill="url(#paint0_linear_545_4512)"/>
</g>
</g>
</g>
<defs>
<filter id="filter0_i_545_4512" x="0" y="0" width="50" height="50" filterUnits="userSpaceOnUse" color-interpolation-filters="sRGB">
<feFlood flood-opacity="0" result="BackgroundImageFix"/>
<feBlend mode="normal" in="SourceGraphic" in2="BackgroundImageFix" result="shape"/>
<feColorMatrix in="SourceAlpha" type="matrix" values="0 0 0 0 0 0 0 0 0 0 0 0 0 0 0 0 0 0 127 0" result="hardAlpha"/>
<feOffset/>
<feGaussianBlur stdDeviation="3.125"/>
<feComposite in2="hardAlpha" operator="arithmetic" k2="-1" k3="1"/>
<feColorMatrix type="matrix" values="0 0 0 0 1 0 0 0 0 1 0 0 0 0 1 0 0 0 0.5 0"/>
<feBlend mode="normal" in2="shape" result="effect1_innerShadow_545_4512"/>
</filter>
<linearGradient id="paint0_linear_545_4512" x1="50" y1="0" x2="0" y2="50" gradientUnits="userSpaceOnUse">
<stop offset="0.13" stop-color="#FF97E3"/>
<stop offset="0.18" stop-color="#D14FE1"/>
<stop offset="0.338" stop-color="#0050E2"/>
<stop offset="0.666" stop-color="#0050E2"/>
<stop offset="0.809" stop-color="#00DDF4"/>
<stop offset="0.858" stop-color="#23F8CC"/>
</linearGradient>
<clipPath id="clip0_545_4512">
<rect width="50" height="50" fill="white"/>
</clipPath>
</defs>
</svg>
