<svg width="50" height="50" viewBox="0 0 50 50" fill="none" xmlns="http://www.w3.org/2000/svg">
<path d="M46.8821 20.4688C47.5186 18.75 47.6778 17.0312 47.5186 15.3125C47.3595 13.5938 46.7229 11.875 45.9272 10.3125C44.4949 7.96875 42.4261 6.09375 40.0389 5C37.4927 3.90625 34.7872 3.59375 32.0818 4.21875C30.8087 2.96875 29.3764 1.875 27.785 1.09375C26.1936 0.3125 24.2839 0 22.5333 0C19.8279 0 17.1225 0.78125 14.8945 2.34375C12.6665 3.90625 11.0751 6.09375 10.2793 8.59375C8.36964 9.0625 6.77822 9.84375 5.1868 10.7812C3.75452 11.875 2.64052 13.2812 1.68567 14.6875C0.253391 17.0312 -0.224035 19.6875 0.0942489 22.3438C0.412533 25 1.52653 27.5 3.27709 29.5312C2.64052 31.25 2.48138 32.9688 2.64052 34.6875C2.79967 36.4062 3.43623 38.125 4.23195 39.6875C5.66423 42.0312 7.73307 43.9062 10.1202 45C12.6665 46.0938 15.3719 46.4062 18.0773 45.7812C19.3505 47.0312 20.7827 48.125 22.3742 48.9062C23.9656 49.6875 25.8753 50 27.6258 50C30.3313 50 33.0367 49.2188 35.2647 47.6562C37.4927 46.0938 39.0841 43.9062 39.8798 41.4062C41.6304 41.0938 43.3809 40.3125 44.8132 39.2188C46.2455 38.125 47.5186 36.875 48.3143 35.3125C49.7466 32.9688 50.224 30.3125 49.9058 27.6563C49.5875 25 48.6326 22.5 46.8821 20.4688ZM27.785 46.7188C25.2387 46.7188 23.329 45.9375 21.5784 44.5312C21.5784 44.5312 21.7376 44.375 21.8967 44.375L32.0818 38.5938C32.4001 38.4375 32.5593 38.2812 32.7184 37.9688C32.8775 37.6562 32.8775 37.5 32.8775 37.1875V23.125L37.1744 25.625V37.1875C37.3335 42.6562 32.8775 46.7188 27.785 46.7188ZM7.25565 38.125C6.14165 36.25 5.66423 34.0625 6.14165 31.875C6.14165 31.875 6.30079 32.0312 6.45994 32.0312L16.645 37.8125C16.9633 37.9688 17.1225 37.9688 17.4407 37.9688C17.759 37.9688 18.0773 37.9688 18.2365 37.8125L30.6495 30.7813V35.625L20.3053 41.5625C18.0773 42.8125 15.531 43.125 13.1439 42.5C10.5976 41.875 8.52878 40.3125 7.25565 38.125ZM4.55023 16.4062C5.66423 14.5312 7.41479 13.125 9.48364 12.3438V12.6563V24.2188C9.48364 24.5312 9.48364 24.8438 9.64278 25C9.80192 25.3125 9.96106 25.4688 10.2793 25.625L22.6924 32.6562L18.3956 35.1562L8.2105 29.375C5.98251 28.125 4.39109 26.0938 3.75452 23.75C3.11795 21.4062 3.27709 18.5938 4.55023 16.4062ZM39.7207 24.375L27.3076 17.3438L31.6044 14.8438L41.7895 20.625C43.3809 21.5625 44.6541 22.8125 45.4498 24.375C46.2455 25.9375 46.7229 27.6562 46.5638 29.5312C46.4046 31.25 45.7681 32.9688 44.6541 34.375C43.5401 35.7812 42.1078 36.875 40.3572 37.5V25.625C40.3572 25.3125 40.3572 25 40.1981 24.8438C40.1981 24.8438 40.0389 24.5312 39.7207 24.375ZM44.0175 18.125C44.0175 18.125 43.8584 17.9688 43.6992 17.9688L33.5141 12.1875C33.1958 12.0312 33.0367 12.0312 32.7184 12.0312C32.4001 12.0312 32.0818 12.0312 31.9227 12.1875L19.5096 19.2188V14.375L29.8538 8.4375C31.4453 7.5 33.1958 7.1875 35.1055 7.1875C36.8561 7.1875 38.6067 7.8125 40.1981 8.90625C41.6304 10 42.9035 11.4062 43.5401 12.9688C44.1766 14.5312 44.3358 16.4062 44.0175 18.125ZM17.2816 26.875L12.9848 24.375V12.6563C12.9848 10.9375 13.4622 9.0625 14.417 7.65625C15.3719 6.09375 16.8042 5 18.3956 4.21875C19.987 3.4375 21.8967 3.125 23.6473 3.4375C25.3979 3.59375 27.1484 4.375 28.5807 5.46875C28.5807 5.46875 28.4216 5.625 28.2624 5.625L18.0773 11.4062C17.759 11.5625 17.5999 11.7188 17.4407 12.0312C17.2816 12.3438 17.2816 12.5 17.2816 12.8125V26.875ZM19.5096 21.875L25.0796 18.75L30.6495 21.875V28.125L25.0796 31.25L19.5096 28.125V21.875Z" fill="#193718"/>
</svg>
