<svg width="496" height="237" viewBox="0 0 496 237" fill="none" xmlns="http://www.w3.org/2000/svg">
<g filter="url(#filter0_ddd_545_811)">
<rect x="20" y="24" width="456" height="190" rx="12" fill="white"/>
<rect x="36.5" y="40.5" width="424" height="79" rx="7.5" fill="white"/>
<rect x="36.5" y="40.5" width="424" height="79" rx="7.5" stroke="#E0E1E6"/>
<path d="M45.233 63V52.8182H46.4659V61.9062H51.1989V63H45.233ZM54.796 63.179C54.3121 63.179 53.873 63.0878 53.4786 62.9055C53.0841 62.7199 52.7709 62.4531 52.5389 62.1051C52.3069 61.7538 52.1909 61.3295 52.1909 60.8324C52.1909 60.3949 52.2771 60.0402 52.4494 59.7685C52.6218 59.4934 52.8521 59.2779 53.1405 59.1222C53.4288 58.9664 53.747 58.8504 54.095 58.7741C54.4464 58.6946 54.7993 58.6316 55.154 58.5852C55.618 58.5256 55.9942 58.4808 56.2825 58.451C56.5742 58.4179 56.7863 58.3632 56.9189 58.2869C57.0548 58.2107 57.1227 58.0781 57.1227 57.8892V57.8494C57.1227 57.3589 56.9885 56.9777 56.72 56.706C56.4549 56.4342 56.0522 56.2983 55.5119 56.2983C54.9518 56.2983 54.5126 56.4209 54.1945 56.6662C53.8763 56.9115 53.6526 57.1733 53.5233 57.4517L52.4097 57.054C52.6085 56.59 52.8737 56.2287 53.2051 55.9702C53.5399 55.7083 53.9045 55.526 54.2989 55.4233C54.6966 55.3172 55.0877 55.2642 55.4722 55.2642C55.7174 55.2642 55.9991 55.294 56.3173 55.3537C56.6388 55.41 56.9487 55.5277 57.247 55.7067C57.5486 55.8857 57.7989 56.1558 57.9977 56.517C58.1966 56.8783 58.296 57.3622 58.296 57.9688V63H57.1227V61.9659H57.0631C56.9835 62.1316 56.8509 62.3089 56.6653 62.4979C56.4797 62.6868 56.2328 62.8475 55.9246 62.9801C55.6163 63.1127 55.2402 63.179 54.796 63.179ZM54.975 62.125C55.439 62.125 55.8301 62.0339 56.1483 61.8516C56.4698 61.6693 56.7117 61.4339 56.8741 61.1456C57.0399 60.8572 57.1227 60.554 57.1227 60.2358V59.1619C57.073 59.2216 56.9636 59.2763 56.7946 59.326C56.6289 59.3724 56.4366 59.4138 56.2179 59.4503C56.0025 59.4834 55.792 59.5133 55.5865 59.5398C55.3843 59.563 55.2203 59.5829 55.0943 59.5994C54.7894 59.6392 54.5044 59.7038 54.2392 59.7933C53.9774 59.8795 53.7652 60.0104 53.6028 60.1861C53.4437 60.3584 53.3642 60.5937 53.3642 60.892C53.3642 61.2997 53.515 61.608 53.8166 61.8168C54.1215 62.0223 54.5077 62.125 54.975 62.125ZM61.2108 58.4062V63H60.0375V55.3636H61.1711V56.5568H61.2705C61.4495 56.169 61.7212 55.8575 62.0858 55.6222C62.4504 55.3835 62.9211 55.2642 63.4978 55.2642C64.0148 55.2642 64.4672 55.3703 64.855 55.5824C65.2428 55.7912 65.5444 56.1094 65.7598 56.5369C65.9753 56.9612 66.083 57.4981 66.083 58.1477V63H64.9097V58.2273C64.9097 57.6274 64.7539 57.16 64.4424 56.8253C64.1308 56.4872 63.7033 56.3182 63.1597 56.3182C62.7852 56.3182 62.4504 56.3994 62.1554 56.5618C61.8638 56.7242 61.6334 56.9612 61.4644 57.2727C61.2953 57.5843 61.2108 57.9621 61.2108 58.4062ZM70.7105 63.1591C70.0741 63.1591 69.5124 62.9983 69.0251 62.6768C68.5379 62.352 68.1568 61.8946 67.8817 61.3047C67.6066 60.7114 67.469 60.0104 67.469 59.2017C67.469 58.3996 67.6066 57.7036 67.8817 57.1136C68.1568 56.5237 68.5396 56.0679 69.0301 55.7464C69.5206 55.425 70.0874 55.2642 70.7304 55.2642C71.2276 55.2642 71.6203 55.3471 71.9087 55.5128C72.2003 55.6752 72.4224 55.8608 72.5749 56.0696C72.7306 56.2751 72.8516 56.4441 72.9378 56.5767H73.0372V52.8182H74.2105V63H73.077V61.8267H72.9378C72.8516 61.9659 72.729 62.1416 72.5699 62.3537C72.4108 62.5625 72.1838 62.7498 71.8888 62.9155C71.5938 63.0779 71.201 63.1591 70.7105 63.1591ZM70.8696 62.1051C71.3402 62.1051 71.738 61.9825 72.0628 61.7372C72.3876 61.4886 72.6345 61.1456 72.8036 60.7081C72.9726 60.2673 73.0571 59.7585 73.0571 59.1818C73.0571 58.6117 72.9742 58.1129 72.8085 57.6854C72.6428 57.2545 72.3975 56.9197 72.0727 56.6811C71.7479 56.4392 71.3469 56.3182 70.8696 56.3182C70.3724 56.3182 69.9581 56.4458 69.6267 56.701C69.2986 56.9529 69.0517 57.2959 68.8859 57.7301C68.7235 58.161 68.6423 58.6449 68.6423 59.1818C68.6423 59.7254 68.7252 60.2192 68.8909 60.6634C69.0599 61.1042 69.3085 61.4555 69.6366 61.7173C69.9681 61.9759 70.3791 62.1051 70.8696 62.1051ZM76.1223 63V55.3636H77.2956V63H76.1223ZM76.7189 54.0909C76.4902 54.0909 76.293 54.013 76.1273 53.8572C75.9649 53.7015 75.8837 53.5142 75.8837 53.2955C75.8837 53.0767 75.9649 52.8894 76.1273 52.7337C76.293 52.5779 76.4902 52.5 76.7189 52.5C76.9476 52.5 77.1431 52.5779 77.3055 52.7337C77.4713 52.8894 77.5541 53.0767 77.5541 53.2955C77.5541 53.5142 77.4713 53.7015 77.3055 53.8572C77.1431 54.013 76.9476 54.0909 76.7189 54.0909ZM80.2179 58.4062V63H79.0446V55.3636H80.1781V56.5568H80.2775C80.4565 56.169 80.7283 55.8575 81.0929 55.6222C81.4574 55.3835 81.9281 55.2642 82.5048 55.2642C83.0218 55.2642 83.4743 55.3703 83.862 55.5824C84.2498 55.7912 84.5514 56.1094 84.7669 56.5369C84.9823 56.9612 85.09 57.4981 85.09 58.1477V63H83.9167V58.2273C83.9167 57.6274 83.7609 57.16 83.4494 56.8253C83.1378 56.4872 82.7103 56.3182 82.1667 56.3182C81.7922 56.3182 81.4574 56.3994 81.1625 56.5618C80.8708 56.7242 80.6404 56.9612 80.4714 57.2727C80.3024 57.5843 80.2179 57.9621 80.2179 58.4062ZM89.9164 66.0227C89.3496 66.0227 88.8624 65.9498 88.4548 65.804C88.0471 65.6615 87.7074 65.4725 87.4356 65.2372C87.1671 65.0052 86.9533 64.7566 86.7942 64.4915L87.7289 63.8352C87.835 63.9744 87.9692 64.1335 88.1316 64.3125C88.294 64.4948 88.5161 64.6522 88.7978 64.7848C89.0828 64.9207 89.4557 64.9886 89.9164 64.9886C90.5329 64.9886 91.0416 64.8395 91.4427 64.5412C91.8437 64.2429 92.0442 63.7756 92.0442 63.1392V61.5881H91.9448C91.8586 61.7273 91.736 61.8996 91.5769 62.1051C91.4211 62.3073 91.1958 62.4879 90.9008 62.647C90.6091 62.8028 90.2147 62.8807 89.7175 62.8807C89.1011 62.8807 88.5476 62.7348 88.057 62.4432C87.5698 62.1515 87.1837 61.7273 86.8986 61.1705C86.6169 60.6136 86.4761 59.9375 86.4761 59.142C86.4761 58.3598 86.6136 57.6787 86.8887 57.0987C87.1638 56.5154 87.5466 56.0646 88.0371 55.7464C88.5277 55.425 89.0944 55.2642 89.7374 55.2642C90.2346 55.2642 90.629 55.3471 90.9207 55.5128C91.2156 55.6752 91.441 55.8608 91.5968 56.0696C91.7559 56.2751 91.8785 56.4441 91.9647 56.5767H92.084V55.3636H93.2175V63.2188C93.2175 63.875 93.0684 64.4086 92.7701 64.8196C92.4751 65.2339 92.0774 65.5372 91.5769 65.7294C91.0798 65.925 90.5263 66.0227 89.9164 66.0227ZM89.8766 61.8267C90.3473 61.8267 90.745 61.719 91.0698 61.5036C91.3946 61.2881 91.6415 60.9782 91.8106 60.5739C91.9796 60.1695 92.0641 59.6856 92.0641 59.1222C92.0641 58.572 91.9813 58.0864 91.8156 57.6655C91.6498 57.2446 91.4046 56.9148 91.0798 56.6761C90.7549 56.4375 90.3539 56.3182 89.8766 56.3182C89.3795 56.3182 88.9652 56.4441 88.6337 56.696C88.3056 56.9479 88.0587 57.286 87.893 57.7102C87.7306 58.1345 87.6494 58.6051 87.6494 59.1222C87.6494 59.6525 87.7322 60.1214 87.8979 60.5291C88.067 60.9335 88.3156 61.2517 88.6437 61.4837C88.9751 61.7124 89.3861 61.8267 89.8766 61.8267ZM98.5028 65.8636V55.3636H99.6363V56.5767H99.7755C99.8617 56.4441 99.981 56.2751 100.133 56.0696C100.289 55.8608 100.511 55.6752 100.8 55.5128C101.091 55.3471 101.486 55.2642 101.983 55.2642C102.626 55.2642 103.193 55.425 103.683 55.7464C104.174 56.0679 104.557 56.5237 104.832 57.1136C105.107 57.7036 105.244 58.3996 105.244 59.2017C105.244 60.0104 105.107 60.7114 104.832 61.3047C104.557 61.8946 104.175 62.352 103.688 62.6768C103.201 62.9983 102.639 63.1591 102.003 63.1591C101.512 63.1591 101.119 63.0779 100.825 62.9155C100.53 62.7498 100.302 62.5625 100.143 62.3537C99.9843 62.1416 99.8617 61.9659 99.7755 61.8267H99.6761V65.8636H98.5028ZM99.6562 59.1818C99.6562 59.7585 99.7407 60.2673 99.9097 60.7081C100.079 61.1456 100.326 61.4886 100.65 61.7372C100.975 61.9825 101.373 62.1051 101.844 62.1051C102.334 62.1051 102.744 61.9759 103.072 61.7173C103.403 61.4555 103.652 61.1042 103.817 60.6634C103.986 60.2192 104.071 59.7254 104.071 59.1818C104.071 58.6449 103.988 58.161 103.822 57.7301C103.66 57.2959 103.413 56.9529 103.082 56.701C102.753 56.4458 102.341 56.3182 101.844 56.3182C101.366 56.3182 100.965 56.4392 100.641 56.6811C100.316 56.9197 100.07 57.2545 99.9048 57.6854C99.739 58.1129 99.6562 58.6117 99.6562 59.1818ZM108.881 63.179C108.397 63.179 107.958 63.0878 107.564 62.9055C107.169 62.7199 106.856 62.4531 106.624 62.1051C106.392 61.7538 106.276 61.3295 106.276 60.8324C106.276 60.3949 106.362 60.0402 106.535 59.7685C106.707 59.4934 106.937 59.2779 107.226 59.1222C107.514 58.9664 107.832 58.8504 108.18 58.7741C108.532 58.6946 108.884 58.6316 109.239 58.5852C109.703 58.5256 110.079 58.4808 110.368 58.451C110.659 58.4179 110.871 58.3632 111.004 58.2869C111.14 58.2107 111.208 58.0781 111.208 57.8892V57.8494C111.208 57.3589 111.074 56.9777 110.805 56.706C110.54 56.4342 110.137 56.2983 109.597 56.2983C109.037 56.2983 108.598 56.4209 108.28 56.6662C107.961 56.9115 107.738 57.1733 107.608 57.4517L106.495 57.054C106.694 56.59 106.959 56.2287 107.29 55.9702C107.625 55.7083 107.99 55.526 108.384 55.4233C108.782 55.3172 109.173 55.2642 109.557 55.2642C109.803 55.2642 110.084 55.294 110.402 55.3537C110.724 55.41 111.034 55.5277 111.332 55.7067C111.634 55.8857 111.884 56.1558 112.083 56.517C112.282 56.8783 112.381 57.3622 112.381 57.9688V63H111.208V61.9659H111.148C111.069 62.1316 110.936 62.3089 110.75 62.4979C110.565 62.6868 110.318 62.8475 110.01 62.9801C109.701 63.1127 109.325 63.179 108.881 63.179ZM109.06 62.125C109.524 62.125 109.915 62.0339 110.233 61.8516C110.555 61.6693 110.797 61.4339 110.959 61.1456C111.125 60.8572 111.208 60.554 111.208 60.2358V59.1619C111.158 59.2216 111.049 59.2763 110.88 59.326C110.714 59.3724 110.522 59.4138 110.303 59.4503C110.088 59.4834 109.877 59.5133 109.672 59.5398C109.469 59.563 109.305 59.5829 109.179 59.5994C108.875 59.6392 108.59 59.7038 108.324 59.7933C108.063 59.8795 107.85 60.0104 107.688 60.1861C107.529 60.3584 107.449 60.5937 107.449 60.892C107.449 61.2997 107.6 61.608 107.902 61.8168C108.207 62.0223 108.593 62.125 109.06 62.125ZM117.205 66.0227C116.638 66.0227 116.151 65.9498 115.743 65.804C115.336 65.6615 114.996 65.4725 114.724 65.2372C114.456 65.0052 114.242 64.7566 114.083 64.4915L115.018 63.8352C115.124 63.9744 115.258 64.1335 115.42 64.3125C115.583 64.4948 115.805 64.6522 116.086 64.7848C116.372 64.9207 116.744 64.9886 117.205 64.9886C117.822 64.9886 118.33 64.8395 118.731 64.5412C119.132 64.2429 119.333 63.7756 119.333 63.1392V61.5881H119.233C119.147 61.7273 119.025 61.8996 118.866 62.1051C118.71 62.3073 118.484 62.4879 118.189 62.647C117.898 62.8028 117.503 62.8807 117.006 62.8807C116.39 62.8807 115.836 62.7348 115.346 62.4432C114.858 62.1515 114.472 61.7273 114.187 61.1705C113.906 60.6136 113.765 59.9375 113.765 59.142C113.765 58.3598 113.902 57.6787 114.177 57.0987C114.452 56.5154 114.835 56.0646 115.326 55.7464C115.816 55.425 116.383 55.2642 117.026 55.2642C117.523 55.2642 117.918 55.3471 118.209 55.5128C118.504 55.6752 118.73 55.8608 118.885 56.0696C119.045 56.2751 119.167 56.4441 119.253 56.5767H119.373V55.3636H120.506V63.2188C120.506 63.875 120.357 64.4086 120.059 64.8196C119.764 65.2339 119.366 65.5372 118.866 65.7294C118.368 65.925 117.815 66.0227 117.205 66.0227ZM117.165 61.8267C117.636 61.8267 118.034 61.719 118.358 61.5036C118.683 61.2881 118.93 60.9782 119.099 60.5739C119.268 60.1695 119.353 59.6856 119.353 59.1222C119.353 58.572 119.27 58.0864 119.104 57.6655C118.939 57.2446 118.693 56.9148 118.368 56.6761C118.044 56.4375 117.643 56.3182 117.165 56.3182C116.668 56.3182 116.254 56.4441 115.922 56.696C115.594 56.9479 115.347 57.286 115.182 57.7102C115.019 58.1345 114.938 58.6051 114.938 59.1222C114.938 59.6525 115.021 60.1214 115.187 60.5291C115.356 60.9335 115.604 61.2517 115.932 61.4837C116.264 61.7124 116.675 61.8267 117.165 61.8267ZM125.456 63.1591C124.72 63.1591 124.085 62.9967 123.552 62.6719C123.021 62.3438 122.612 61.8864 122.324 61.2997C122.039 60.7098 121.896 60.0237 121.896 59.2415C121.896 58.4593 122.039 57.7699 122.324 57.1733C122.612 56.5734 123.013 56.1061 123.527 55.7713C124.044 55.4332 124.647 55.2642 125.336 55.2642C125.734 55.2642 126.127 55.3305 126.515 55.4631C126.902 55.5956 127.255 55.8111 127.574 56.1094C127.892 56.4044 128.145 56.7955 128.334 57.2827C128.523 57.7699 128.618 58.3698 128.618 59.0824V59.5795H122.731V58.5653H127.424C127.424 58.1345 127.338 57.75 127.166 57.4119C126.997 57.0739 126.755 56.8071 126.44 56.6115C126.128 56.416 125.761 56.3182 125.336 56.3182C124.869 56.3182 124.465 56.4342 124.123 56.6662C123.785 56.8949 123.525 57.1932 123.343 57.5611C123.16 57.929 123.069 58.3234 123.069 58.7443V59.4205C123.069 59.9972 123.169 60.486 123.368 60.8871C123.57 61.2848 123.85 61.5881 124.208 61.7969C124.566 62.0024 124.982 62.1051 125.456 62.1051C125.764 62.1051 126.042 62.062 126.291 61.9759C126.543 61.8864 126.76 61.7538 126.942 61.5781C127.124 61.3991 127.265 61.1771 127.365 60.9119L128.498 61.2301C128.379 61.6146 128.178 61.9527 127.897 62.2443C127.615 62.5327 127.267 62.758 126.853 62.9205C126.438 63.0795 125.973 63.1591 125.456 63.1591Z" fill="url(#paint0_linear_545_811)" fill-opacity="0.6"/>
<rect x="36" y="136" width="425" height="4" rx="2" fill="#F8F8FA"/>
<rect x="36" y="136" width="197" height="4" rx="2" fill="url(#paint1_linear_545_811)"/>
<rect x="36" y="156" width="425" height="42" rx="6" fill="#0B765B"/>
<g opacity="0.654689">
<path fill-rule="evenodd" clip-rule="evenodd" d="M199.28 169.333C199.45 169.333 199.595 169.458 199.619 169.627C199.732 170.423 200.357 171.048 201.153 171.161C201.321 171.185 201.447 171.33 201.447 171.5C201.447 171.67 201.321 171.815 201.153 171.839C200.357 171.952 199.732 172.577 199.619 173.373C199.595 173.541 199.45 173.667 199.28 173.667C199.11 173.667 198.965 173.541 198.941 173.373C198.828 172.577 198.203 171.952 197.407 171.839C197.238 171.815 197.113 171.67 197.113 171.5C197.113 171.33 197.238 171.185 197.407 171.161C198.203 171.048 198.828 170.423 198.941 169.627C198.965 169.458 199.11 169.333 199.28 169.333Z" fill="white"/>
</g>
<g opacity="0.803313">
<path fill-rule="evenodd" clip-rule="evenodd" d="M189.72 169.992C189.631 169.503 188.929 169.503 188.84 169.992L188.722 170.642C188.417 172.322 187.102 173.636 185.422 173.942L184.772 174.06C184.283 174.149 184.283 174.851 184.772 174.94L185.422 175.058C187.102 175.364 188.417 176.678 188.722 178.358L188.84 179.008C188.929 179.497 189.631 179.497 189.72 179.008L189.838 178.358C190.144 176.678 191.458 175.364 193.138 175.058L193.788 174.94C194.278 174.851 194.278 174.149 193.788 174.06L193.138 173.942C191.458 173.636 190.144 172.322 189.838 170.642L189.72 169.992Z" fill="white"/>
</g>
<g opacity="0.717652">
<path fill-rule="evenodd" clip-rule="evenodd" d="M196.75 178.622C196.634 178.126 195.927 178.126 195.81 178.622C195.807 178.636 195.804 178.655 195.803 178.661L195.803 178.662C195.788 178.74 195.782 178.773 195.776 178.803C195.55 179.907 194.687 180.77 193.583 180.996C193.554 181.002 193.521 181.008 193.442 181.022L193.441 181.023C193.436 181.024 193.416 181.027 193.403 181.03C192.906 181.147 192.906 181.853 193.403 181.97C193.418 181.973 193.44 181.977 193.442 181.978C193.521 181.992 193.554 181.998 193.583 182.004C194.687 182.23 195.55 183.093 195.776 184.197C195.782 184.227 195.788 184.26 195.803 184.338C195.803 184.34 195.807 184.363 195.81 184.378C195.927 184.874 196.634 184.874 196.75 184.378C196.753 184.364 196.757 184.345 196.758 184.339L196.758 184.338C196.772 184.26 196.778 184.227 196.784 184.197C197.01 183.093 197.873 182.23 198.977 182.004C199.007 181.998 199.04 181.992 199.118 181.978L199.119 181.977C199.125 181.976 199.144 181.973 199.158 181.97C199.654 181.853 199.654 181.147 199.158 181.03C199.144 181.027 199.125 181.024 199.119 181.023L199.118 181.022C199.04 181.008 199.007 181.002 198.977 180.996C197.873 180.77 197.01 179.907 196.784 178.803C196.778 178.773 196.772 178.74 196.758 178.662L196.758 178.661C196.757 178.655 196.753 178.636 196.75 178.622Z" fill="white"/>
</g>
<path d="M237.141 184.09V171.782H241.501C245.873 171.782 248.059 173.782 248.059 177.782C248.059 179.698 247.461 181.229 246.265 182.373C245.074 183.518 243.487 184.09 241.501 184.09H237.141ZM239.913 174.039V181.841H241.286C242.488 181.841 243.429 181.481 244.11 180.76C244.797 180.039 245.14 179.058 245.14 177.816C245.14 176.643 244.8 175.722 244.119 175.052C243.444 174.377 242.494 174.039 241.269 174.039H239.913ZM257.732 180.468H251.998C252.09 181.744 252.894 182.382 254.41 182.382C255.377 182.382 256.227 182.153 256.959 181.695V183.652C256.147 184.087 255.091 184.305 253.792 184.305C252.373 184.305 251.271 183.913 250.488 183.129C249.704 182.339 249.312 181.241 249.312 179.833C249.312 178.374 249.735 177.218 250.582 176.365C251.429 175.513 252.47 175.086 253.706 175.086C254.988 175.086 255.978 175.467 256.676 176.228C257.38 176.989 257.732 178.022 257.732 179.326V180.468ZM255.217 178.803C255.217 177.544 254.708 176.915 253.689 176.915C253.254 176.915 252.876 177.095 252.556 177.455C252.241 177.816 252.05 178.265 251.981 178.803H255.217ZM258.77 183.858V181.661C259.217 181.93 259.66 182.13 260.101 182.262C260.547 182.394 260.967 182.459 261.362 182.459C261.843 182.459 262.221 182.394 262.495 182.262C262.776 182.13 262.916 181.93 262.916 181.661C262.916 181.489 262.853 181.346 262.727 181.232C262.601 181.117 262.438 181.017 262.238 180.932C262.043 180.846 261.829 180.768 261.594 180.7C261.359 180.631 261.133 180.554 260.916 180.468C260.567 180.336 260.258 180.196 259.989 180.047C259.726 179.893 259.503 179.716 259.32 179.515C259.142 179.315 259.005 179.083 258.908 178.82C258.816 178.557 258.77 178.245 258.77 177.885C258.77 177.392 258.876 176.969 259.088 176.614C259.305 176.259 259.591 175.971 259.946 175.747C260.307 175.518 260.716 175.353 261.173 175.25C261.637 175.141 262.118 175.086 262.615 175.086C263.005 175.086 263.399 175.118 263.8 175.181C264.2 175.238 264.595 175.324 264.984 175.438V177.533C264.641 177.332 264.272 177.184 263.877 177.086C263.488 176.983 263.105 176.932 262.727 176.932C262.55 176.932 262.381 176.949 262.221 176.983C262.066 177.012 261.929 177.058 261.809 177.121C261.688 177.178 261.594 177.255 261.525 177.352C261.457 177.444 261.422 177.55 261.422 177.67C261.422 177.83 261.474 177.967 261.577 178.082C261.68 178.196 261.814 178.297 261.98 178.382C262.146 178.462 262.329 178.537 262.53 178.606C262.736 178.668 262.939 178.734 263.139 178.803C263.499 178.929 263.826 179.066 264.117 179.215C264.409 179.364 264.658 179.538 264.864 179.738C265.076 179.939 265.236 180.173 265.345 180.442C265.459 180.711 265.516 181.032 265.516 181.404C265.516 181.924 265.402 182.371 265.173 182.743C264.95 183.109 264.65 183.409 264.272 183.644C263.9 183.873 263.468 184.039 262.976 184.142C262.49 184.25 261.983 184.305 261.457 184.305C260.49 184.305 259.594 184.156 258.77 183.858ZM268.46 173.911C268.003 173.911 267.628 173.776 267.336 173.507C267.044 173.233 266.898 172.898 266.898 172.503C266.898 172.097 267.044 171.765 267.336 171.507C267.628 171.25 268.003 171.121 268.46 171.121C268.924 171.121 269.299 171.25 269.585 171.507C269.877 171.765 270.023 172.097 270.023 172.503C270.023 172.915 269.877 173.253 269.585 173.516C269.299 173.779 268.924 173.911 268.46 173.911ZM269.799 184.09H267.087V175.301H269.799V184.09ZM280.7 183.086C280.7 184.717 280.228 185.978 279.284 186.871C278.34 187.769 276.972 188.219 275.181 188.219C273.997 188.219 273.058 188.05 272.366 187.712V185.429C273.27 185.955 274.183 186.219 275.104 186.219C276.019 186.219 276.729 185.976 277.232 185.489C277.736 185.008 277.988 184.353 277.988 183.524V182.828H277.953C277.335 183.813 276.423 184.305 275.215 184.305C274.094 184.305 273.204 183.91 272.546 183.12C271.888 182.331 271.559 181.272 271.559 179.944C271.559 178.457 271.925 177.275 272.658 176.4C273.39 175.524 274.354 175.086 275.55 175.086C276.62 175.086 277.421 175.498 277.953 176.322H277.988V175.301H280.7V183.086ZM278.022 179.867V179.172C278.022 178.617 277.856 178.145 277.524 177.756C277.198 177.361 276.772 177.164 276.245 177.164C275.645 177.164 275.172 177.398 274.829 177.867C274.486 178.337 274.314 178.997 274.314 179.85C274.314 180.582 274.477 181.163 274.803 181.592C275.13 182.016 275.576 182.228 276.142 182.228C276.703 182.228 277.155 182.013 277.498 181.584C277.847 181.149 278.022 180.577 278.022 179.867ZM291.455 184.09H288.751V179.206C288.751 177.844 288.264 177.164 287.292 177.164C286.823 177.164 286.436 177.344 286.133 177.704C285.83 178.065 285.678 178.523 285.678 179.078V184.09H282.966V175.301H285.678V176.691H285.712C286.359 175.621 287.3 175.086 288.536 175.086C290.482 175.086 291.455 176.294 291.455 178.709V184.09Z" fill="white"/>
</g>
<defs>
<filter id="filter0_ddd_545_811" x="-22" y="0" width="540" height="274" filterUnits="userSpaceOnUse" color-interpolation-filters="sRGB">
<feFlood flood-opacity="0" result="BackgroundImageFix"/>
<feColorMatrix in="SourceAlpha" type="matrix" values="0 0 0 0 0 0 0 0 0 0 0 0 0 0 0 0 0 0 127 0" result="hardAlpha"/>
<feMorphology radius="1" operator="dilate" in="SourceAlpha" result="effect1_dropShadow_545_811"/>
<feOffset/>
<feComposite in2="hardAlpha" operator="out"/>
<feColorMatrix type="matrix" values="0 0 0 0 0.0509804 0 0 0 0 0.054902 0 0 0 0 0.0745098 0 0 0 0.12 0"/>
<feBlend mode="normal" in2="BackgroundImageFix" result="effect1_dropShadow_545_811"/>
<feColorMatrix in="SourceAlpha" type="matrix" values="0 0 0 0 0 0 0 0 0 0 0 0 0 0 0 0 0 0 127 0" result="hardAlpha"/>
<feOffset dy="18"/>
<feGaussianBlur stdDeviation="21"/>
<feComposite in2="hardAlpha" operator="out"/>
<feColorMatrix type="matrix" values="0 0 0 0 0 0 0 0 0 0 0 0 0 0 0 0 0 0 0.12 0"/>
<feBlend mode="normal" in2="effect1_dropShadow_545_811" result="effect2_dropShadow_545_811"/>
<feColorMatrix in="SourceAlpha" type="matrix" values="0 0 0 0 0 0 0 0 0 0 0 0 0 0 0 0 0 0 127 0" result="hardAlpha"/>
<feOffset dy="2.25388"/>
<feGaussianBlur stdDeviation="2.62952"/>
<feComposite in2="hardAlpha" operator="out"/>
<feColorMatrix type="matrix" values="0 0 0 0 0 0 0 0 0 0 0 0 0 0 0 0 0 0 0.12 0"/>
<feBlend mode="normal" in2="effect2_dropShadow_545_811" result="effect3_dropShadow_545_811"/>
<feBlend mode="normal" in="SourceGraphic" in2="effect3_dropShadow_545_811" result="shape"/>
</filter>
<linearGradient id="paint0_linear_545_811" x1="48.5" y1="58" x2="289.5" y2="60" gradientUnits="userSpaceOnUse">
<stop stop-color="#0B0A0A"/>
<stop offset="1" stop-color="#0B0A0A"/>
</linearGradient>
<linearGradient id="paint1_linear_545_811" x1="36" y1="140" x2="233.015" y2="139.068" gradientUnits="userSpaceOnUse">
<stop stop-color="#0000FF"/>
<stop offset="1" stop-color="#DC07FF"/>
</linearGradient>
</defs>
</svg>
