<svg width="192" height="192" viewBox="0 0 192 192" fill="none" xmlns="http://www.w3.org/2000/svg">
<path fill-rule="evenodd" clip-rule="evenodd" d="M9.56267 113.573C8.81717 113.822 8.00342 113.768 7.29773 113.422C6.59203 113.075 6.05123 112.465 5.79249 111.723C5.53375 110.98 5.57791 110.166 5.91541 109.456C6.2529 108.746 6.85655 108.198 7.59556 107.929C28.0535 100.805 49.1285 91.6505 69.9847 79.7632C88.9805 68.9362 107.8 55.8338 125.812 39.9238L119.184 40.2835C118.4 40.31 117.638 40.0276 117.06 39.4971C116.483 38.9666 116.137 38.2305 116.097 37.4474C116.057 36.6642 116.326 35.8968 116.847 35.3103C117.367 34.7239 118.097 34.3654 118.88 34.3121L133.913 33.4961C134.353 33.4736 134.793 33.5489 135.201 33.7165C135.609 33.8841 135.975 34.1399 136.272 34.4655C136.57 34.7911 136.792 35.1786 136.922 35.6C137.052 36.0214 137.087 36.4664 137.025 36.9031L137.027 36.9035L134.858 51.8014C134.74 52.5811 134.318 53.2825 133.685 53.7531C133.052 54.2236 132.259 54.4253 131.478 54.3142C130.698 54.2031 129.992 53.7882 129.516 53.1598C129.039 52.5313 128.83 51.7402 128.934 50.9584L129.905 44.2923C111.538 60.532 92.3317 73.9075 72.9361 84.9623C51.7483 97.0377 30.3409 106.337 9.56267 113.573ZM14.3043 128.553H25.6079C27.6717 128.553 29.3548 130.236 29.3548 132.3V160.868C29.3548 162.932 27.6717 164.615 25.6079 164.615H14.3043C12.2406 164.615 10.5575 162.932 10.5575 160.868V132.3C10.5578 130.236 12.2409 128.553 14.3043 128.553Z" fill="#00FF93"/>
<path fill-rule="evenodd" clip-rule="evenodd" d="M19.9287 128.552H25.6071C27.6709 128.552 29.354 130.235 29.354 132.299V160.867C29.354 162.931 27.6709 164.614 25.6071 164.614H19.9287C21.9925 164.614 23.6756 162.931 23.6756 160.867V132.299C23.6756 130.235 21.9925 128.552 19.9287 128.552Z" fill="black" fill-opacity="0.3"/>
<path fill-rule="evenodd" clip-rule="evenodd" d="M60.5117 109.658H49.2078C47.144 109.658 45.4609 111.342 45.4609 113.405V160.867C45.4609 162.931 47.144 164.614 49.2078 164.614H60.5117C62.5755 164.614 64.2586 162.931 64.2586 160.867V113.405C64.2586 111.342 62.5751 109.658 60.5117 109.658Z" fill="url(#paint0_linear_545_922)"/>
<path fill-rule="evenodd" clip-rule="evenodd" d="M25.7913 128.518H14.3001C12.2022 128.518 10.4912 129.643 10.4912 131.022V162.734C10.4912 164.113 12.2022 165.237 14.3001 165.237H25.7913C27.8893 165.237 29.6002 164.113 29.6002 162.734V131.022C29.6002 129.643 27.8889 128.518 25.7913 128.518Z" fill="url(#paint1_linear_545_922)"/>
<path fill-rule="evenodd" clip-rule="evenodd" d="M60.5114 109.658H54.833C56.8968 109.658 58.5799 111.342 58.5799 113.405V160.867C58.5799 162.931 56.8968 164.614 54.833 164.614H60.5114C62.5752 164.614 64.2583 162.931 64.2583 160.867V113.405C64.2583 111.342 62.5748 109.658 60.5114 109.658Z" fill="black" fill-opacity="0.5"/>
<path fill-rule="evenodd" clip-rule="evenodd" d="M25.7275 128.518H19.8584C21.9915 128.518 23.7311 129.643 23.7311 131.022V162.734C23.7311 164.113 21.9915 165.237 19.8584 165.237H25.7275C27.8606 165.237 29.6003 164.113 29.6003 162.734V131.022C29.6003 129.643 27.8602 128.518 25.7275 128.518Z" fill="black" fill-opacity="0.5"/>
<path fill-rule="evenodd" clip-rule="evenodd" d="M95.4147 89.9299H84.1111C82.0474 89.9299 80.3643 91.613 80.3643 93.6764V160.868C80.3643 162.932 82.0474 164.615 84.1111 164.615H95.4147C97.4785 164.615 99.1616 162.932 99.1616 160.868V93.6764C99.1616 91.613 97.4785 89.9299 95.4147 89.9299Z" fill="url(#paint2_linear_545_922)"/>
<path fill-rule="evenodd" clip-rule="evenodd" d="M95.4147 89.9299H89.7363C91.8001 89.9299 93.4832 91.613 93.4832 93.6764V160.868C93.4832 162.932 91.8001 164.615 89.7363 164.615H95.4147C97.4785 164.615 99.1616 162.932 99.1616 160.868V93.6764C99.1616 91.613 97.4785 89.9299 95.4147 89.9299Z" fill="black" fill-opacity="0.5"/>
<path fill-rule="evenodd" clip-rule="evenodd" d="M119.014 72.1824H130.318C132.382 72.1824 134.065 73.8655 134.065 75.9292V160.868C134.065 162.932 132.382 164.615 130.318 164.615H119.014C116.951 164.615 115.268 162.932 115.268 160.868V75.9292C115.268 73.8655 116.951 72.1824 119.014 72.1824Z" fill="url(#paint3_linear_545_922)"/>
<path fill-rule="evenodd" clip-rule="evenodd" d="M124.64 72.1824H130.318C132.382 72.1824 134.065 73.8655 134.065 75.9292V160.868C134.065 162.932 132.382 164.615 130.318 164.615H124.64C126.703 164.615 128.387 162.932 128.387 160.868V75.9292C128.387 73.8655 126.703 72.1824 124.64 72.1824Z" fill="black" fill-opacity="0.5"/>
<path fill-rule="evenodd" clip-rule="evenodd" d="M165.22 54.4341H153.917C151.853 54.4341 150.17 56.1172 150.17 58.181V163.479C150.17 165.543 151.853 167.226 153.917 167.226H165.22C167.284 167.226 168.967 165.543 168.967 163.479V58.181C168.967 56.1172 167.284 54.4341 165.22 54.4341Z" fill="url(#paint4_linear_545_922)"/>
<path fill-rule="evenodd" clip-rule="evenodd" d="M165.22 54.4341H159.542C161.606 54.4341 163.289 56.1172 163.289 58.181V163.479C163.289 165.543 161.606 167.226 159.542 167.226H165.22C167.284 167.226 168.967 165.543 168.967 163.479V58.181C168.967 56.1172 167.284 54.4341 165.22 54.4341Z" fill="black" fill-opacity="0.5"/>
<path fill-rule="evenodd" clip-rule="evenodd" d="M160.349 6.53103L164.357 17.0863C164.413 17.2394 164.513 17.3723 164.645 17.468C164.777 17.5638 164.934 17.6181 165.097 17.624L176.374 18.1737C177.141 18.2111 177.455 19.1775 176.856 19.6582L168.056 26.7311C167.927 26.8316 167.832 26.968 167.782 27.1229C167.731 27.2778 167.728 27.4442 167.773 27.6008L170.735 38.4956C170.937 39.2367 170.115 39.8336 169.473 39.4132L160.026 33.2293C159.891 33.1385 159.732 33.0899 159.569 33.0899C159.406 33.0899 159.247 33.1385 159.112 33.2293L149.665 39.4132C149.023 39.8336 148.201 39.2367 148.403 38.4956L151.364 27.6004C151.409 27.4438 151.406 27.2774 151.356 27.1226C151.305 26.9677 151.21 26.8313 151.082 26.7308L142.282 19.6574C141.683 19.1763 141.997 18.2104 142.764 18.1729L154.041 17.6233C154.204 17.6173 154.361 17.563 154.493 17.4672C154.625 17.3715 154.725 17.2386 154.781 17.0856L158.789 6.53028C159.059 5.81725 160.078 5.81725 160.349 6.53103Z" fill="url(#paint5_linear_545_922)"/>
<path fill-rule="evenodd" clip-rule="evenodd" d="M163.471 123.866C166.357 124.554 169.116 125.698 171.642 127.254L176.953 124.896L183.211 131.154L180.854 136.463C182.411 138.99 183.555 141.749 184.242 144.637L189.66 146.722V155.573L184.241 157.659C183.553 160.545 182.41 163.304 180.853 165.83L183.211 171.141L176.953 177.399L171.645 175.042C169.118 176.599 166.358 177.743 163.471 178.43L161.385 183.848H152.535L150.449 178.429C147.562 177.741 144.803 176.597 142.277 175.041L136.967 177.399L130.708 171.141L133.066 165.833C131.509 163.305 130.365 160.546 129.677 157.659L124.26 155.573V146.723L129.678 144.637C130.366 141.75 131.509 138.991 133.066 136.465L130.708 131.155L136.966 124.896L142.277 127.255C144.803 125.698 147.562 124.555 150.448 123.867L152.534 118.448H161.385L163.471 123.866Z" fill="url(#paint6_linear_545_922)"/>
<path fill-rule="evenodd" clip-rule="evenodd" d="M142.277 175.041L136.967 177.399L136.15 176.581L141.128 174.37C141.506 174.603 141.889 174.827 142.277 175.041ZM163.471 123.866C166.358 124.554 169.117 125.697 171.643 127.254L170.134 127.924C167.607 126.368 163.7 124.553 160.813 123.866L158.727 118.447H161.386L163.471 123.866ZM171.645 175.041C169.118 176.599 166.359 177.742 163.471 178.43L161.386 183.847H158.727L160.812 178.43C163.7 177.743 167.608 175.928 170.136 174.371L171.645 175.041ZM136.149 125.713L136.967 124.895L142.277 127.254C141.889 127.468 141.506 127.692 141.128 127.924L136.149 125.713ZM175.113 125.713L176.954 124.895L183.212 131.154L180.854 136.463C182.411 138.99 183.555 141.749 184.243 144.637L189.66 146.722V155.573L184.242 157.658C183.554 160.545 182.41 163.304 180.854 165.83L183.212 171.141L176.954 177.399L175.113 176.581L180.554 171.141L178.195 165.83C179.752 163.304 180.896 160.545 181.583 157.658L187.002 155.573V146.722L181.584 144.637C180.897 141.749 179.753 138.99 178.196 136.463L180.554 131.154L175.113 125.713Z" fill="#007144"/>
<path d="M167.848 162.061C173.876 156.033 173.876 146.261 167.848 140.233C161.821 134.205 152.048 134.205 146.02 140.233C139.993 146.261 139.993 156.033 146.02 162.061C152.048 168.089 161.821 168.089 167.848 162.061Z" fill="#ECEFF1"/>
<path fill-rule="evenodd" clip-rule="evenodd" d="M156.96 135.712C148.435 135.712 141.525 142.622 141.525 151.147C141.525 159.672 148.435 166.582 156.96 166.582C157.373 166.582 157.783 166.566 158.188 166.534C150.237 165.908 143.981 159.259 143.981 151.147C143.981 143.035 150.237 136.387 158.188 135.761C157.779 135.729 157.37 135.712 156.96 135.712Z" fill="#D1D1D6"/>
<defs>
<linearGradient id="paint0_linear_545_922" x1="54.8598" y1="109.658" x2="54.8598" y2="164.614" gradientUnits="userSpaceOnUse">
<stop stop-color="#202125"/>
<stop offset="1" stop-color="#0B0D12"/>
</linearGradient>
<linearGradient id="paint1_linear_545_922" x1="20.0457" y1="128.518" x2="20.0457" y2="165.237" gradientUnits="userSpaceOnUse">
<stop stop-color="#202125"/>
<stop offset="1" stop-color="#0B0D12"/>
</linearGradient>
<linearGradient id="paint2_linear_545_922" x1="89.7629" y1="89.9299" x2="89.7629" y2="164.615" gradientUnits="userSpaceOnUse">
<stop stop-color="#202125"/>
<stop offset="1" stop-color="#0B0D12"/>
</linearGradient>
<linearGradient id="paint3_linear_545_922" x1="124.666" y1="72.1824" x2="124.666" y2="164.615" gradientUnits="userSpaceOnUse">
<stop stop-color="#202125"/>
<stop offset="1" stop-color="#0B0D12"/>
</linearGradient>
<linearGradient id="paint4_linear_545_922" x1="159.569" y1="54.4341" x2="159.569" y2="167.226" gradientUnits="userSpaceOnUse">
<stop stop-color="#202125"/>
<stop offset="1" stop-color="#0B0D12"/>
</linearGradient>
<linearGradient id="paint5_linear_545_922" x1="159.569" y1="5.99561" x2="159.569" y2="39.5524" gradientUnits="userSpaceOnUse">
<stop stop-color="#FFC977"/>
<stop offset="1" stop-color="#F7C000"/>
</linearGradient>
<linearGradient id="paint6_linear_545_922" x1="165.955" y1="188.147" x2="175.961" y2="160.92" gradientUnits="userSpaceOnUse">
<stop stop-color="#B3F3D9"/>
<stop offset="1" stop-color="#00CC7A"/>
</linearGradient>
</defs>
</svg>
