<svg width="392" height="438" viewBox="0 0 392 438" fill="none" xmlns="http://www.w3.org/2000/svg">
<rect width="392" height="438" rx="12" fill="#05130E"/>
<g filter="url(#filter0_dii_545_833)">
<rect x="132" y="220" width="128" height="128" rx="32" fill="url(#paint0_linear_545_833)"/>
<rect x="132.5" y="220.5" width="127" height="127" rx="31.5" stroke="#9292AF"/>
<path d="M138.859 277.431V273.509H155.747V277.431H149.688V293.49H144.927V277.431H138.859ZM157.495 293.49V273.509H171.427V277.431H162.324V281.529H170.714V285.461H162.324V289.568H171.427V293.49H157.495ZM191.978 280.748H187.099C187.034 280.247 186.901 279.795 186.699 279.392C186.498 278.989 186.231 278.644 185.899 278.358C185.568 278.072 185.174 277.854 184.719 277.704C184.27 277.548 183.773 277.47 183.226 277.47C182.257 277.47 181.421 277.708 180.719 278.182C180.023 278.657 179.486 279.343 179.109 280.241C178.738 281.139 178.553 282.225 178.553 283.5C178.553 284.826 178.742 285.939 179.119 286.836C179.503 287.727 180.039 288.4 180.729 288.856C181.424 289.305 182.247 289.529 183.197 289.529C183.73 289.529 184.215 289.461 184.651 289.324C185.093 289.187 185.48 288.989 185.812 288.729C186.15 288.462 186.426 288.14 186.641 287.763C186.862 287.379 187.015 286.947 187.099 286.465L191.978 286.495C191.893 287.379 191.636 288.251 191.207 289.109C190.784 289.968 190.202 290.752 189.46 291.461C188.719 292.163 187.815 292.722 186.748 293.139C185.688 293.555 184.472 293.763 183.099 293.763C181.291 293.763 179.672 293.366 178.241 292.573C176.816 291.773 175.691 290.609 174.865 289.08C174.039 287.552 173.626 285.691 173.626 283.5C173.626 281.301 174.045 279.438 174.885 277.909C175.724 276.381 176.859 275.22 178.289 274.426C179.72 273.633 181.324 273.236 183.099 273.236C184.309 273.236 185.428 273.405 186.455 273.743C187.483 274.075 188.387 274.563 189.168 275.207C189.948 275.844 190.582 276.628 191.07 277.558C191.558 278.488 191.86 279.552 191.978 280.748ZM194.13 293.49V273.509H198.96V281.529H206.833V273.509H211.653V293.49H206.833V285.461H198.96V293.49H194.13ZM231.077 273.509V293.49H226.979L219.028 281.958H218.901V293.49H214.072V273.509H218.228L226.091 285.022H226.257V273.509H231.077ZM252.362 283.5C252.362 285.698 251.939 287.561 251.093 289.09C250.248 290.618 249.103 291.779 247.659 292.573C246.222 293.366 244.609 293.763 242.82 293.763C241.025 293.763 239.409 293.363 237.971 292.563C236.534 291.763 235.392 290.602 234.547 289.08C233.708 287.552 233.288 285.691 233.288 283.5C233.288 281.301 233.708 279.438 234.547 277.909C235.392 276.381 236.534 275.22 237.971 274.426C239.409 273.633 241.025 273.236 242.82 273.236C244.609 273.236 246.222 273.633 247.659 274.426C249.103 275.22 250.248 276.381 251.093 277.909C251.939 279.438 252.362 281.301 252.362 283.5ZM247.425 283.5C247.425 282.199 247.24 281.1 246.869 280.202C246.505 279.304 245.978 278.625 245.288 278.163C244.606 277.701 243.783 277.47 242.82 277.47C241.864 277.47 241.041 277.701 240.352 278.163C239.662 278.625 239.132 279.304 238.762 280.202C238.397 281.1 238.215 282.199 238.215 283.5C238.215 284.8 238.397 285.9 238.762 286.797C239.132 287.695 239.662 288.374 240.352 288.836C241.041 289.298 241.864 289.529 242.82 289.529C243.783 289.529 244.606 289.298 245.288 288.836C245.978 288.374 246.505 287.695 246.869 286.797C247.24 285.9 247.425 284.8 247.425 283.5Z" fill="white"/>
</g>
<rect opacity="0.1" x="52.5" y="140.5" width="287" height="287" rx="111.5" stroke="#6428ED"/>
<rect opacity="0.3" x="72.5" y="160.5" width="247" height="247" rx="91.5" stroke="#6428ED"/>
<rect opacity="0.6" x="92.5" y="180.5" width="207" height="207" rx="71.5" stroke="#6428ED"/>
<rect x="112.5" y="200.5" width="167" height="167" rx="51.5" stroke="#6428ED"/>
<path d="M68.9844 309.132L69.0527 309.447L69.3682 309.516L75.1162 310.75L69.3682 311.984L69.0527 312.053L68.9844 312.368L67.75 318.116L66.5156 312.368L66.4473 312.053L66.1318 311.984L60.3828 310.75L66.1318 309.516L66.4473 309.447L66.5156 309.132L67.75 303.383L68.9844 309.132Z" fill="#212AFF"/>
<path d="M68.9844 309.132L69.0527 309.447L69.3682 309.516L75.1162 310.75L69.3682 311.984L69.0527 312.053L68.9844 312.368L67.75 318.116L66.5156 312.368L66.4473 312.053L66.1318 311.984L60.3828 310.75L66.1318 309.516L66.4473 309.447L66.5156 309.132L67.75 303.383L68.9844 309.132Z" fill="#212AFF"/>
<path d="M68.9844 309.132L69.0527 309.447L69.3682 309.516L75.1162 310.75L69.3682 311.984L69.0527 312.053L68.9844 312.368L67.75 318.116L66.5156 312.368L66.4473 312.053L66.1318 311.984L60.3828 310.75L66.1318 309.516L66.4473 309.447L66.5156 309.132L67.75 303.383L68.9844 309.132Z" fill="#212AFF"/>
<path d="M68.9844 309.132L69.0527 309.447L69.3682 309.516L75.1162 310.75L69.3682 311.984L69.0527 312.053L68.9844 312.368L67.75 318.116L66.5156 312.368L66.4473 312.053L66.1318 311.984L60.3828 310.75L66.1318 309.516L66.4473 309.447L66.5156 309.132L67.75 303.383L68.9844 309.132Z" stroke="#8C52F1"/>
<path d="M280.984 356.132L281.053 356.447L281.368 356.516L287.116 357.75L281.368 358.984L281.053 359.053L280.984 359.368L279.75 365.116L278.516 359.368L278.447 359.053L278.132 358.984L272.383 357.75L278.132 356.516L278.447 356.447L278.516 356.132L279.75 350.383L280.984 356.132Z" fill="#212AFF"/>
<path d="M280.984 356.132L281.053 356.447L281.368 356.516L287.116 357.75L281.368 358.984L281.053 359.053L280.984 359.368L279.75 365.116L278.516 359.368L278.447 359.053L278.132 358.984L272.383 357.75L278.132 356.516L278.447 356.447L278.516 356.132L279.75 350.383L280.984 356.132Z" fill="#212AFF"/>
<path d="M280.984 356.132L281.053 356.447L281.368 356.516L287.116 357.75L281.368 358.984L281.053 359.053L280.984 359.368L279.75 365.116L278.516 359.368L278.447 359.053L278.132 358.984L272.383 357.75L278.132 356.516L278.447 356.447L278.516 356.132L279.75 350.383L280.984 356.132Z" fill="#212AFF"/>
<path d="M280.984 356.132L281.053 356.447L281.368 356.516L287.116 357.75L281.368 358.984L281.053 359.053L280.984 359.368L279.75 365.116L278.516 359.368L278.447 359.053L278.132 358.984L272.383 357.75L278.132 356.516L278.447 356.447L278.516 356.132L279.75 350.383L280.984 356.132Z" stroke="#8C52F1"/>
<path d="M43.9844 104.132L44.0527 104.447L44.3682 104.516L50.1162 105.75L44.3682 106.984L44.0527 107.053L43.9844 107.368L42.75 113.116L41.5156 107.368L41.4473 107.053L41.1318 106.984L35.3828 105.75L41.1318 104.516L41.4473 104.447L41.5156 104.132L42.75 98.3828L43.9844 104.132Z" fill="#212AFF"/>
<path d="M43.9844 104.132L44.0527 104.447L44.3682 104.516L50.1162 105.75L44.3682 106.984L44.0527 107.053L43.9844 107.368L42.75 113.116L41.5156 107.368L41.4473 107.053L41.1318 106.984L35.3828 105.75L41.1318 104.516L41.4473 104.447L41.5156 104.132L42.75 98.3828L43.9844 104.132Z" fill="#212AFF"/>
<path d="M43.9844 104.132L44.0527 104.447L44.3682 104.516L50.1162 105.75L44.3682 106.984L44.0527 107.053L43.9844 107.368L42.75 113.116L41.5156 107.368L41.4473 107.053L41.1318 106.984L35.3828 105.75L41.1318 104.516L41.4473 104.447L41.5156 104.132L42.75 98.3828L43.9844 104.132Z" fill="#212AFF"/>
<path d="M43.9844 104.132L44.0527 104.447L44.3682 104.516L50.1162 105.75L44.3682 106.984L44.0527 107.053L43.9844 107.368L42.75 113.116L41.5156 107.368L41.4473 107.053L41.1318 106.984L35.3828 105.75L41.1318 104.516L41.4473 104.447L41.5156 104.132L42.75 98.3828L43.9844 104.132Z" stroke="#8C52F1"/>
<path d="M348.984 149.132L349.053 149.447L349.368 149.516L355.116 150.75L349.368 151.984L349.053 152.053L348.984 152.368L347.75 158.116L346.516 152.368L346.447 152.053L346.132 151.984L340.383 150.75L346.132 149.516L346.447 149.447L346.516 149.132L347.75 143.383L348.984 149.132Z" fill="#212AFF"/>
<path d="M348.984 149.132L349.053 149.447L349.368 149.516L355.116 150.75L349.368 151.984L349.053 152.053L348.984 152.368L347.75 158.116L346.516 152.368L346.447 152.053L346.132 151.984L340.383 150.75L346.132 149.516L346.447 149.447L346.516 149.132L347.75 143.383L348.984 149.132Z" fill="#212AFF"/>
<path d="M348.984 149.132L349.053 149.447L349.368 149.516L355.116 150.75L349.368 151.984L349.053 152.053L348.984 152.368L347.75 158.116L346.516 152.368L346.447 152.053L346.132 151.984L340.383 150.75L346.132 149.516L346.447 149.447L346.516 149.132L347.75 143.383L348.984 149.132Z" fill="#212AFF"/>
<path d="M348.984 149.132L349.053 149.447L349.368 149.516L355.116 150.75L349.368 151.984L349.053 152.053L348.984 152.368L347.75 158.116L346.516 152.368L346.447 152.053L346.132 151.984L340.383 150.75L346.132 149.516L346.447 149.447L346.516 149.132L347.75 143.383L348.984 149.132Z" stroke="#8C52F1"/>
<defs>
<filter id="filter0_dii_545_833" x="113" y="219" width="166" height="173" filterUnits="userSpaceOnUse" color-interpolation-filters="sRGB">
<feFlood flood-opacity="0" result="BackgroundImageFix"/>
<feColorMatrix in="SourceAlpha" type="matrix" values="0 0 0 0 0 0 0 0 0 0 0 0 0 0 0 0 0 0 127 0" result="hardAlpha"/>
<feMorphology radius="1" operator="erode" in="SourceAlpha" result="effect1_dropShadow_545_833"/>
<feOffset dy="25"/>
<feGaussianBlur stdDeviation="10"/>
<feComposite in2="hardAlpha" operator="out"/>
<feColorMatrix type="matrix" values="0 0 0 0 0 0 0 0 0 0 0 0 0 0 0 0 0 0 0.2 0"/>
<feBlend mode="normal" in2="BackgroundImageFix" result="effect1_dropShadow_545_833"/>
<feBlend mode="normal" in="SourceGraphic" in2="effect1_dropShadow_545_833" result="shape"/>
<feColorMatrix in="SourceAlpha" type="matrix" values="0 0 0 0 0 0 0 0 0 0 0 0 0 0 0 0 0 0 127 0" result="hardAlpha"/>
<feMorphology radius="1" operator="erode" in="SourceAlpha" result="effect2_innerShadow_545_833"/>
<feOffset dy="1"/>
<feGaussianBlur stdDeviation="0.5"/>
<feComposite in2="hardAlpha" operator="arithmetic" k2="-1" k3="1"/>
<feColorMatrix type="matrix" values="0 0 0 0 0.8 0 0 0 0 0.780392 0 0 0 0 0.780392 0 0 0 0.2 0"/>
<feBlend mode="normal" in2="shape" result="effect2_innerShadow_545_833"/>
<feColorMatrix in="SourceAlpha" type="matrix" values="0 0 0 0 0 0 0 0 0 0 0 0 0 0 0 0 0 0 127 0" result="hardAlpha"/>
<feMorphology radius="1" operator="erode" in="SourceAlpha" result="effect3_innerShadow_545_833"/>
<feOffset dy="-1"/>
<feGaussianBlur stdDeviation="0.5"/>
<feComposite in2="hardAlpha" operator="arithmetic" k2="-1" k3="1"/>
<feColorMatrix type="matrix" values="0 0 0 0 0.8 0 0 0 0 0.780392 0 0 0 0 0.780392 0 0 0 0.2 0"/>
<feBlend mode="normal" in2="effect2_innerShadow_545_833" result="effect3_innerShadow_545_833"/>
</filter>
<linearGradient id="paint0_linear_545_833" x1="132" y1="220" x2="234.251" y2="366.03" gradientUnits="userSpaceOnUse">
<stop stop-color="#9359F2"/>
<stop offset="1" stop-color="#5B1FEC"/>
</linearGradient>
</defs>
</svg>
