<svg width="110" height="86" viewBox="0 0 110 86" fill="none" xmlns="http://www.w3.org/2000/svg">
<g clip-path="url(#clip0_545_2421)">
<g clip-path="url(#clip1_545_2421)">
<mask id="mask0_545_2421" style="mask-type:luminance" maskUnits="userSpaceOnUse" x="16" y="21" width="78" height="43">
<path d="M93.5 21.7812H16.5V63.7812H93.5V21.7812Z" fill="white"/>
</mask>
<g mask="url(#mask0_545_2421)">
<path d="M75.5589 57.4708C84.9629 47.9601 86.5258 34.1213 79.0496 26.5603C71.5745 19.0002 57.8923 20.5807 48.4889 30.0908C39.0854 39.6013 41.8056 57.7713 44.9987 61.0014C47.579 63.6111 66.156 66.981 75.5589 57.4708Z" fill="#F89939"/>
<path d="M36.9749 43.7281C31.5195 38.2104 23.5801 37.2918 19.2417 41.6795C14.9044 46.0665 15.8112 54.0976 21.2678 59.6144C26.7243 65.1338 37.1484 63.5373 38.9999 61.663C40.4981 60.1502 42.432 49.2463 36.9749 43.7281Z" fill="#3499CD"/>
<path d="M55.8022 55.1399C54.8384 56.0371 53.9929 56.6993 53.2663 57.1248C52.5397 57.5516 51.8465 57.7648 51.1871 57.7648C50.4285 57.7648 49.8166 57.4674 49.3526 56.8723C48.8878 56.2767 48.6562 55.478 48.6562 54.4732C48.6562 52.9677 48.9789 51.1603 49.6242 49.053C50.2683 46.944 51.0527 45.0007 51.974 43.2227L54.6754 42.2112C54.7601 42.1826 54.8244 42.168 54.8672 42.168C55.0721 42.168 55.2415 42.3207 55.3714 42.6249C55.5027 42.9304 55.5689 43.341 55.5689 43.8571C55.5689 45.32 55.2359 46.7362 54.5687 48.1057C53.9018 49.4759 52.86 50.9382 51.4423 52.4942C51.3854 53.2401 51.357 53.7523 51.357 54.0323C51.357 54.6566 51.4704 55.1506 51.6973 55.5165C51.9244 55.8829 52.2253 56.0649 52.6012 56.0649C52.9847 56.0649 53.392 55.9262 53.8246 55.6465C54.2563 55.3662 54.9158 54.786 55.8018 53.9034L55.8022 55.1399ZM51.7295 50.9351C52.6296 49.9227 53.3606 48.7873 53.9204 47.5312C54.4801 46.2745 54.7598 45.1936 54.7598 44.2879C54.7598 44.0239 54.7211 43.8094 54.6437 43.6482C54.5657 43.4867 54.4658 43.4056 54.3456 43.4056C54.0843 43.4056 53.7025 44.0661 53.2024 45.3874C52.7024 46.7084 52.2115 48.5579 51.7295 50.9351Z" fill="#010101"/>
<path d="M63.7604 55.1383C62.8602 56.0355 62.0522 56.6977 61.3359 57.1232C60.6195 57.55 59.8299 57.7632 58.9644 57.7632C58.0001 57.7632 57.2221 57.4512 56.6293 56.828C56.0376 56.2032 55.7422 55.3829 55.7422 54.3643C55.7422 52.8445 56.2628 51.4693 57.3062 50.2396C58.3475 49.0093 59.5036 48.3945 60.7725 48.3945C61.432 48.3945 61.9595 48.5672 62.3571 48.9113C62.7542 49.2558 62.9527 49.7071 62.9527 50.2665C62.9527 51.7512 61.3931 52.9551 58.2736 53.8805C58.5568 55.2781 59.2976 55.978 60.496 55.978C60.9641 55.978 61.4103 55.8507 61.8354 55.5969C62.2616 55.3419 62.9027 54.7763 63.7607 53.9021L63.7604 55.1383ZM58.1878 53.1489C60.0023 52.6322 60.9102 51.6791 60.9102 50.2879C60.9102 49.5996 60.6617 49.2555 60.1661 49.2555C59.698 49.2555 59.2518 49.6153 58.8267 50.3367C58.4002 51.057 58.1878 51.9939 58.1878 53.1489Z" fill="#010101"/>
<path d="M75.1181 55.138C73.9836 56.2279 73.1718 56.9387 72.6831 57.2689C72.1938 57.5986 71.726 57.7632 71.279 57.7632C70.1586 57.7632 69.6308 56.7631 69.6944 54.7623C68.9855 55.7873 68.3311 56.5438 67.7319 57.0325C67.1332 57.52 66.5149 57.7632 65.876 57.7632C65.253 57.7632 64.7232 57.468 64.2864 56.8763C63.8497 56.2846 63.6328 55.559 63.6328 54.6977C63.6328 53.6227 63.9246 52.5971 64.5091 51.6212C65.0947 50.6459 65.8444 49.8579 66.7587 49.2555C67.673 48.6532 68.4821 48.3516 69.1832 48.3516C70.0698 48.3516 70.6903 48.7641 71.0449 49.5883L73.2184 48.3735H73.8148L72.8761 51.5246C72.394 53.1099 72.1522 54.1964 72.1522 54.7842C72.1522 55.4006 72.3679 55.7089 72.8008 55.7089C73.0763 55.7089 73.3811 55.5604 73.7146 55.2624C74.048 54.9644 74.5151 54.5109 75.1176 53.9015L75.1181 55.138ZM67.3334 55.7303C68.0423 55.7303 68.7103 55.1192 69.339 53.8968C69.9665 52.6738 70.28 51.5454 70.28 50.5131C70.28 50.1121 70.1905 49.7978 70.0142 49.5723C69.8363 49.3457 69.5989 49.2334 69.3018 49.2334C68.5923 49.2334 67.9199 49.8427 67.2865 51.0621C66.6521 52.2814 66.3342 53.4036 66.3342 54.4281C66.3342 54.8159 66.4286 55.1296 66.6162 55.37C66.8039 55.6103 67.0422 55.7303 67.3334 55.7303Z" fill="#010101"/>
<path d="M83.0634 55.1398C81.2836 56.9037 79.9114 57.7863 78.9474 57.7863C78.5145 57.7863 78.1491 57.6015 77.8521 57.2334C77.555 56.8638 77.4053 56.4063 77.4053 55.861C77.4053 54.85 77.9412 53.4953 79.0116 51.7955C78.4865 52.0681 77.9129 52.2574 77.2887 52.3653C76.8278 53.2257 76.1042 54.151 75.1191 55.1395H74.875V54.1727C75.4275 53.5919 75.9276 52.9676 76.3744 52.3007C75.7638 52.028 75.4595 51.6227 75.4595 51.0858C75.4595 50.5329 75.6449 49.9434 76.0181 49.3152C76.3902 48.6884 76.9022 48.375 77.555 48.375C78.1081 48.375 78.384 48.6609 78.384 49.2349C78.384 49.6867 78.2247 50.3318 77.9051 51.1712C79.0818 51.0417 80.11 50.1318 80.9896 48.439L81.957 48.3958L80.9679 51.1493C80.557 52.3111 80.291 53.1024 80.1708 53.5214C80.0505 53.9404 79.9897 54.3122 79.9897 54.6343C79.9897 54.9359 80.0592 55.1769 80.1969 55.3549C80.3351 55.5355 80.5217 55.6242 80.7555 55.6242C81.0104 55.6242 81.2556 55.5361 81.4894 55.3614C81.7232 55.1842 82.2479 54.6989 83.0637 53.9031L83.0634 55.1398Z" fill="#010101"/>
<path d="M93.5039 55.1416C91.8662 56.8923 90.4616 57.7668 89.2923 57.7668C88.8173 57.7668 88.4344 57.5983 88.1437 57.261C87.8524 56.9243 87.7072 56.4727 87.7072 55.9063C87.7072 55.1391 88.0196 53.9664 88.6437 52.3895C88.9766 51.5431 89.1438 51.0045 89.1438 50.7759C89.1438 50.5462 89.0544 50.4313 88.8781 50.4313C88.779 50.4313 88.6471 50.4819 88.4844 50.5816C88.3347 50.6818 88.1612 50.8228 87.9626 51.0017C87.7858 51.1663 87.5867 51.3671 87.3671 51.6029C87.1752 51.8054 86.9695 52.0346 86.7509 52.2918L86.1545 52.9916C85.8927 53.314 85.7294 53.6541 85.6659 54.013C85.559 54.6224 85.4884 55.1823 85.4526 55.692C85.431 56.0712 85.4207 56.5834 85.4207 57.2301L83.0703 57.7884C82.9928 56.8204 82.9531 56.0995 82.9531 55.6269C82.9531 54.4724 83.0861 53.3786 83.3524 52.3463C83.6181 51.3128 84.0449 50.1519 84.6338 48.8607L87.2282 48.3555C86.6826 49.8402 86.3247 51.0084 86.1545 51.8613C87.3174 50.5493 88.2392 49.6411 88.9225 49.1348C89.6047 48.629 90.2122 48.3774 90.7431 48.3774C91.1038 48.3774 91.4053 48.515 91.6455 48.7905C91.8868 49.0662 92.0067 49.4125 92.0067 49.8264C92.0067 50.5142 91.7019 51.6473 91.093 53.2256C90.6742 54.3079 90.4649 55.0102 90.4649 55.3346C90.4649 55.7662 90.639 55.9819 90.9872 55.9819C91.5056 55.9819 92.3452 55.2896 93.5039 53.9057V55.1416Z" fill="#010101"/>
<path d="M69.7582 50.5438L68.0207 51.0355C67.9114 50.7459 67.7502 50.4645 67.5371 50.1913C67.3295 49.9127 67.0454 49.6832 66.6848 49.5029C66.3241 49.3226 65.8624 49.2324 65.2997 49.2324C64.5292 49.2324 63.8872 49.41 63.3736 49.7651C62.8655 50.1148 62.6114 50.5601 62.6114 51.1011C62.6114 51.5819 62.7863 51.9616 63.136 52.2403C63.4856 52.519 64.032 52.7512 64.7751 52.9369L66.6438 53.3959C67.7693 53.6691 68.608 54.0871 69.1599 54.6499C69.7118 55.2072 69.9877 55.9257 69.9877 56.8054C69.9877 57.5266 69.7801 58.1714 69.3648 58.7396C68.955 59.3078 68.3813 59.7559 67.6437 60.0837C66.906 60.4116 66.0482 60.5755 65.0702 60.5755C63.7862 60.5755 62.7234 60.2968 61.882 59.7395C61.0405 59.1822 60.5078 58.3681 60.2838 57.2971L62.1197 56.8382C62.2945 57.5157 62.6251 58.0238 63.1114 58.3626C63.6031 58.7014 64.2451 58.8707 65.0374 58.8707C65.9389 58.8707 66.6547 58.6795 67.1847 58.297C67.7202 57.9091 67.9879 57.4447 67.9879 56.9037C67.9879 56.4666 67.8349 56.1005 67.5289 55.8055C67.2229 55.505 66.7531 55.281 66.1192 55.1334L64.0211 54.6417C62.8682 54.3685 62.0213 53.945 61.4804 53.3713C60.9449 52.7921 60.6772 52.0682 60.6772 51.1994C60.6772 50.4891 60.8766 49.8608 61.2755 49.3144C61.6798 48.768 62.2289 48.3391 62.9229 48.0276C63.6222 47.7162 64.4145 47.5605 65.2997 47.5605C66.5454 47.5605 67.5235 47.8337 68.2338 48.38C68.9495 48.9264 69.4577 49.6477 69.7582 50.5438ZM65.9553 88.5755C64.7751 88.5755 63.7588 88.2968 62.9065 87.7395C62.0541 87.1822 61.3984 86.4145 60.9395 85.4365C60.4805 84.4584 60.251 83.3411 60.251 82.0844C60.251 80.8059 60.486 79.6775 60.9559 78.6995C61.4312 77.716 62.0923 76.9483 62.9393 76.3964C63.7916 75.8391 64.786 75.5605 65.9225 75.5605C66.8077 75.5605 67.6054 75.7244 68.3157 76.0522C69.026 76.38 69.6079 76.839 70.0614 77.4291C70.5149 78.0192 70.7963 78.7077 70.9056 79.4945H68.9714C68.8239 78.9208 68.496 78.4126 67.9879 77.97C67.4852 77.522 66.8077 77.298 65.9553 77.298C65.2013 77.298 64.5402 77.4947 63.9719 77.8881C63.4091 78.276 62.9693 78.8251 62.6524 79.5354C62.341 80.2403 62.1852 81.0681 62.1852 82.0188C62.1852 82.9914 62.3382 83.8383 62.6442 84.5595C62.9556 85.2807 63.3928 85.8408 63.9555 86.2397C64.5238 86.6385 65.1904 86.8379 65.9553 86.8379C66.458 86.8379 66.9142 86.7505 67.324 86.5757C67.7338 86.4008 68.0808 86.1495 68.3649 85.8217C68.649 85.4938 68.8512 85.1004 68.9714 84.6415H70.9056C70.7963 85.3846 70.5259 86.0539 70.0942 86.6494C69.668 87.2395 69.1025 87.7094 68.3977 88.0592C67.6983 88.4035 66.8842 88.5755 65.9553 88.5755ZM60.8411 116.313V103.725H62.7753V116.313H60.8411ZM61.8246 101.627C61.4476 101.627 61.1225 101.498 60.8493 101.241C60.5816 100.985 60.4477 100.676 60.4477 100.315C60.4477 99.9543 60.5816 99.6456 60.8493 99.3888C61.1225 99.132 61.4476 99.0036 61.8246 99.0036C62.2016 99.0036 62.524 99.132 62.7917 99.3888C63.0649 99.6456 63.2015 99.9543 63.2015 100.315C63.2015 100.676 63.0649 100.985 62.7917 101.241C62.524 101.498 62.2016 101.627 61.8246 101.627ZM62.6442 139.724L62.6114 137.331H63.0048L68.5124 131.725H70.9056L65.0374 137.658H64.8735L62.6442 139.724ZM60.8411 144.313V127.528H62.7753V144.313H60.8411ZM68.8403 144.313L63.9228 138.085L65.2997 136.741L71.299 144.313H68.8403ZM60.8411 172.313V159.725H62.7753V172.313H60.8411ZM61.8246 157.627C61.4476 157.627 61.1225 157.498 60.8493 157.241C60.5816 156.985 60.4477 156.676 60.4477 156.315C60.4477 155.955 60.5816 155.646 60.8493 155.389C61.1225 155.132 61.4476 155.004 61.8246 155.004C62.2016 155.004 62.524 155.132 62.7917 155.389C63.0649 155.646 63.2015 155.955 63.2015 156.315C63.2015 156.676 63.0649 156.985 62.7917 157.241C62.524 157.498 62.2016 157.627 61.8246 157.627ZM71.7928 159.725V161.364H65.2689V159.725H71.7928ZM67.1704 156.709H69.1046V168.707C69.1046 169.254 69.1838 169.664 69.3423 169.937C69.5062 170.204 69.7138 170.385 69.9651 170.478C70.2219 170.565 70.4924 170.609 70.7765 170.609C70.9896 170.609 71.1645 170.598 71.3011 170.576C71.4377 170.549 71.5469 170.527 71.6289 170.51L72.0223 172.248C71.8912 172.297 71.7081 172.346 71.4732 172.395C71.2382 172.45 70.9404 172.477 70.5798 172.477C70.0334 172.477 69.498 172.36 68.9734 172.125C68.4544 171.89 68.0227 171.532 67.6785 171.051C67.3397 170.571 67.1704 169.964 67.1704 169.232V156.709Z" fill="white"/>
</g>
</g>
</g>
<defs>
<clipPath id="clip0_545_2421">
<rect width="110" height="86" fill="white"/>
</clipPath>
<clipPath id="clip1_545_2421">
<rect width="110" height="86" fill="white"/>
</clipPath>
</defs>
</svg>
